<?xml version="1.0" encoding="UTF-8" standalone="no"?>
<svg
   xmlns:dc="http://purl.org/dc/elements/1.1/"
   xmlns:cc="http://creativecommons.org/ns#"
   xmlns:rdf="http://www.w3.org/1999/02/22-rdf-syntax-ns#"
   xmlns:svg="http://www.w3.org/2000/svg"
   xmlns="http://www.w3.org/2000/svg"
   xmlns:sodipodi="http://sodipodi.sourceforge.net/DTD/sodipodi-0.dtd"
   xmlns:inkscape="http://www.inkscape.org/namespaces/inkscape"
   width="27.267719in"
   height="17.692909in"
   viewBox="0 0 692.60008 449.39991"
   version="1.1"
   id="svg10099"
   inkscape:version="1.0.2 (e86c8708, 2021-01-15)"
   sodipodi:docname="TreeTwo.svg"
   inkscape:export-filename="/Users/michaelwalker/Desktop/tree2down.png"
   inkscape:export-xdpi="96"
   inkscape:export-ydpi="96">
  <defs
     id="defs10093" />
  <sodipodi:namedview
     id="base"
     pagecolor="#ffffff"
     bordercolor="#666666"
     borderopacity="1.0"
     inkscape:pageopacity="0.0"
     inkscape:pageshadow="2"
     inkscape:zoom="0.35"
     inkscape:cx="1593.43"
     inkscape:cy="560"
     inkscape:document-units="mm"
     inkscape:current-layer="layer1"
     inkscape:document-rotation="0"
     showgrid="false"
     units="in"
     inkscape:window-width="1920"
     inkscape:window-height="1054"
     inkscape:window-x="1440"
     inkscape:window-y="26"
     inkscape:window-maximized="0" />
  <metadata
     id="metadata10096">
    <rdf:RDF>
      <cc:Work
         rdf:about="">
        <dc:format>image/svg+xml</dc:format>
        <dc:type
           rdf:resource="http://purl.org/dc/dcmitype/StillImage" />
        <dc:title></dc:title>
      </cc:Work>
    </rdf:RDF>
  </metadata>
  <g
     inkscape:label="Layer 1"
     inkscape:groupmode="layer"
     id="layer1">
    <path
       style="fill:#008000;stroke:#000000;stroke-width:1.28175;fill-opacity:1;stroke-opacity:1"
       d="m 351.97638,18.450981 c -0.75624,3.713885 -2.08926,8.000073 -6.24728,9.262089 -4.92194,1.493629 -9.57342,-6.882639 -14.54535,-2.811786 -4.59381,3.760925 -1.0818,24.046746 -4.76556,24.046746 -3.26848,0 -5.88454,-6.450943 -7.93791,-8.464964 -6.17293,-6.054114 -10.63729,-4.308619 -17.7741,-1.524007 -6.97146,-13.326918 -20.41707,-5.428745 -31.5004,-7.016968 -5.32698,-0.763413 -11.48837,-7.354709 -16.72562,-6.139861 -9.22607,2.140274 -10.90261,10.426435 -15.45668,16.368137 -2.47123,3.223229 -6.75742,4.125713 -8.11351,8.380882 -1.0613,3.329487 0.85621,6.61142 -0.89595,9.8317 -6.04476,11.111533 -22.30651,18.617617 -26.45593,30.087656 -1.73511,4.79607 0.58384,15.273005 1.73473,20.266725 -4.79543,-0.0525 -11.96557,-3.28129 -16.33046,-1.7214 -6.21023,2.22 -11.5181,11.45248 -5.45938,15.8207 -4.41936,5.40644 -13.27885,9.59009 -3.84526,15.38106 -5.90658,8.30962 -37.24511,29.17402 -19.22632,39.7344 -11.34635,19.44294 9.00971,26.12216 24.35334,26.91685 -1.1382,3.74913 -5.40888,6.6882 -5.81238,10.43989 -0.46784,4.35028 7.69681,14.32746 12.25768,13.86603 4.22044,-0.42811 7.75,-5.74867 11.49927,-7.64311 4.8972,13.9378 21.46683,16.07962 32.04387,8.97229 0.38196,11.73703 11.20638,10.15662 20.31837,7.86741 5.66536,-1.42275 2.67631,-10.34505 9.23761,-10.88338 5.48207,-0.45118 11.27304,4.31567 15.30544,7.40982 11.86776,9.10559 28.53186,21.87956 35.53665,35.34055 7.87382,15.12983 5.4795,36.07755 5.4795,52.55194 0,36.71459 -3.11338,74.9519 0.0756,111.51267 1.21383,13.92883 23.73041,15.15034 30.45578,4.62201 5.56154,-8.70568 -1.12025,-31.83623 -2.11618,-41.7929 -3.23258,-32.31175 -12.23306,-82.48733 10.42195,-108.94916 14.87989,-17.37931 33.85115,-24.56226 52.16742,-36.84917 7.49314,-5.02704 14.7389,-14.1762 23.07159,-17.44083 4.4682,-1.75216 8.47496,1.22664 12.81755,1.90981 7.44315,1.17281 29.23298,-0.51655 32.04387,-7.86228 16.70383,5.21161 20.36196,-0.27814 31.31199,-10.83724 3.12235,-3.01084 7.23422,-4.00036 8.93127,-8.41344 2.03286,-5.28852 -0.39863,-11.28072 1.25227,-16.63846 1.85086,-6.00117 7.5944,-10.10407 8.09941,-16.66281 0.36274,-4.70789 -1.88931,-9.37732 -2.11874,-14.0993 -0.32941,-6.79074 1.92904,-16.55899 -0.82417,-22.88189 -0.65754,-1.50863 -12.23819,-12.8137 -13.73272,-13.49688 -4.84631,-2.21615 -12.38688,1.61501 -14.53125,-5.82429 -1.42916,-4.95783 8.83257,-7.94432 9.49267,-13.83398 1.23049,-10.974516 -6.98428,-17.970719 -7.37265,-27.277028 -10.30275,-4.674047 -15.35799,-7.479808 -25.6351,-1.281754 l -1.28175,-1.281755 c 1.12153,-2.381116 3.06724,-5.598962 1.19203,-8.195925 -2.57376,-3.562509 -8.48906,-0.934784 -11.58706,-4.861952 -5.782,-7.325998 -5.33851,-28.171945 -17.80358,-25.394767 -1.33559,-8.349608 -6.50875,-6.393266 -12.81755,-3.845265 -5.98323,-10.814294 -22.73833,-6.548229 -24.35334,5.12702 -11.25893,-3.50483 -10.53346,0.880437 -17.94457,7.690528 L 377.61147,27.423265 351.97638,18.450981 M 212.2651,114.58259 c -4.40219,1.02925 -5.98849,0.38709 -7.69053,-3.84526 l 7.69053,3.84526 m -15.38106,41.01616 -2.56351,17.94456 -14.0993,-24.35333 16.66281,6.40877 m 208.92604,28.1986 c 1.62527,14.107 -10.52449,24.91604 -24.35334,25.6351 1.19716,-15.04396 6.82662,-30.21224 24.35334,-25.6351 m -6.40877,60.24248 c 1.48939,-17.05887 11.58065,-41.09562 24.25592,-52.77369 3.77093,-3.47484 20.49014,-9.99641 24.29951,-4.15032 5.4167,8.31346 -14.74531,12.03952 -18.21502,17.20884 -3.87987,5.78327 0.15766,11.68447 -1.5945,17.92534 -2.97495,10.59242 -18.30858,20.71444 -28.74591,21.78983 M 372.48445,196.6149 c -0.69343,5.36799 -7.12271,29.40858 -17.11527,21.69883 -7.77769,-6.00118 12.11515,-20.69009 17.11527,-21.69883 m -83.31406,17.94457 c 8.29936,1.75344 14.89784,2.2341 23.07159,-1.45992 3.10825,-1.4048 8.34166,-6.90866 12.04465,-4.74249 3.50688,2.05209 2.05465,10.54371 2.05465,13.89294 -10e-4,14.96577 -6.751,38.33472 -23.75348,19.10712 -3.03007,-3.42613 -5.31159,-7.44443 -7.53287,-11.41659 -2.75706,-4.92963 -4.92451,-9.80927 -5.88454,-15.38106 m 107.66741,0 c -3.33128,19.35706 -22.59734,59.96305 -47.42493,55.11546 2.99674,-9.03638 10.41169,-15.57589 16.00271,-23.07159 9.45294,-12.67143 12.88163,-30.13406 31.42222,-32.04387 m -39.7344,17.94457 c 1.38685,7.41879 -3.74145,14.61713 -10.25404,17.94456 1.59835,-7.71616 3.71068,-13.19438 10.25404,-17.94456 z"
       id="path10676"
       sodipodi:nodetypes="cccsccccccccccccccscccccccsccccccccsccccccsccccccccccccccccccccccccccccccccscccccccccccc" />
  </g>
</svg>
