<?xml version="1.0" encoding="UTF-8" standalone="no"?>
<svg
   xmlns:dc="http://purl.org/dc/elements/1.1/"
   xmlns:cc="http://creativecommons.org/ns#"
   xmlns:rdf="http://www.w3.org/1999/02/22-rdf-syntax-ns#"
   xmlns:svg="http://www.w3.org/2000/svg"
   xmlns="http://www.w3.org/2000/svg"
   xmlns:sodipodi="http://sodipodi.sourceforge.net/DTD/sodipodi-0.dtd"
   xmlns:inkscape="http://www.inkscape.org/namespaces/inkscape"
   width="20.267719in"
   height="15.69291in"
   viewBox="0 0 514.80008 398.59993"
   version="1.1"
   id="svg10716"
   inkscape:version="1.0.2 (e86c8708, 2021-01-15)"
   sodipodi:docname="TreeThree.svg"
   inkscape:export-filename="/Users/michaelwalker/Resume/portfolio_website/src/images/work_photos/TreeThree.svg.png"
   inkscape:export-xdpi="96"
   inkscape:export-ydpi="96">
  <defs
     id="defs10710" />
  <sodipodi:namedview
     id="base"
     pagecolor="#ffffff"
     bordercolor="#666666"
     borderopacity="1.0"
     inkscape:pageopacity="0.0"
     inkscape:pageshadow="2"
     inkscape:zoom="0.35"
     inkscape:cx="400"
     inkscape:cy="560"
     inkscape:document-units="mm"
     inkscape:current-layer="layer1"
     inkscape:document-rotation="0"
     showgrid="false"
     units="in"
     inkscape:window-width="1920"
     inkscape:window-height="1054"
     inkscape:window-x="1440"
     inkscape:window-y="26"
     inkscape:window-maximized="0" />
  <metadata
     id="metadata10713">
    <rdf:RDF>
      <cc:Work
         rdf:about="">
        <dc:format>image/svg+xml</dc:format>
        <dc:type
           rdf:resource="http://purl.org/dc/dcmitype/StillImage" />
        <dc:title></dc:title>
      </cc:Work>
    </rdf:RDF>
  </metadata>
  <g
     inkscape:label="Layer 1"
     inkscape:groupmode="layer"
     id="layer1">
    <path
       style="fill:#008000;stroke:#000000;stroke-width:1.503;fill-opacity:1;stroke-opacity:1;stroke-miterlimit:4;stroke-dasharray:none"
       d="m 267.82878,9.2377285 c -2.91764,5.6750535 -15.35122,13.5173825 -22.03664,11.0512865 -5.51219,-2.033303 -10.34735,-8.433354 -16.55532,-8.754118 -11.4919,-0.593561 -7.87849,16.391683 -15.5971,19.489713 -4.94102,1.982912 -10.02207,-4.532589 -14.17578,-6.147984 -2.50745,-0.975301 -19.14326,1.346567 -21.38717,3.136954 -3.93539,3.140924 1.15669,8.320332 0.0772,12.098592 -1.00673,3.527625 -5.74375,5.854235 -5.24094,9.864384 0.47966,3.82391 9.83131,7.161989 6.04588,11.524327 -4.88368,5.625544 -14.0148,0.467527 -15.8827,-4.848831 -12.10278,1.537547 -28.5937,3.000113 -18.7452,18.745197 h -7.71861 l -2.20532,11.026587 -6.61595,-5.513294 c -3.5048,4.244134 -8.64208,1.162533 -10.95337,4.033746 -3.88257,4.822919 3.53149,15.215142 0.64914,21.143592 -2.20267,4.53049 -7.79591,0.40059 -11.26995,3.37931 -2.83184,2.42806 -1.84022,5.01269 -0.47899,7.83108 l -6.620246,0.001 c -18.6002,0.13122 2.011796,13.75788 -0.37259,20.59877 -1.63392,4.68741 -9.84222,0.98137 -12.82778,4.32353 -8.49709,9.51484 14.355836,18.05603 19.820616,20.28561 v 2.20532 c -5.08932,0.87441 -15.816096,-3.09296 -19.327176,-0.96924 -2.99989,1.81498 -1.74209,6.23443 -5.10994,8.13872 -4.00387,2.26266 -10.56755,2.37182 -13.42597,6.39212 -3.09175,4.34778 3.18756,7.28526 5.65112,9.82469 7.4005,7.62819 5.26696,13.56159 17.87741,14.1041 -5.33919,12.30898 -0.32253,8.27766 5.51329,17.64254 l 6.615946,-2.20532 c -2.65388,8.74188 -15.852256,4.78885 -19.447146,13.34769 -3.96692,9.44427 9.04544,14.03243 12.65081,19.89086 2.02095,3.28261 1.8636,8.69556 6.844856,8.9999 6.8388,0.41901 11.72369,-6.24877 18.69668,-5.85071 -0.49289,1.38384 -1.25714,2.96946 -1.43621,4.45584 -1.56236,12.96837 7.93462,0.21392 10.74419,2.073 3.92922,2.60007 2.39057,12.41042 10.37734,10.24039 5.60416,-1.52387 3.42641,-10.50723 5.7056,-14.40513 7.7131,-13.19 22.3145,-9.73427 33.04999,-5.67208 v 2.20532 l -3.30797,2.20532 c 7.36465,3.54394 17.19375,0.62079 24.06993,4.44151 6.06242,3.36752 9.95591,11.56909 14.88148,16.41638 6.67329,6.56633 15.45046,10.741 20.62523,18.83782 6.06793,9.49169 5.20896,28.53901 5.46368,39.69571 0.20289,8.86427 -2.52178,17.60726 -6.78797,25.36115 -2.29353,4.17026 -7.23234,10.13564 -4.1868,15.13068 5.82314,9.55234 34.85063,4.87817 44.07107,3.61452 3.74793,-0.51384 9.85446,-0.34072 12.36962,-3.65862 3.36201,-4.4349 -1.29232,-12.68389 -2.58353,-17.2919 -3.21204,-11.46213 -5.88489,-27.86198 -4.03683,-39.69571 1.97265,-12.63426 16.37558,-18.24238 19.61189,-29.77178 l -8.82127,1.10266 c 12.66072,-18.5368 32.67839,-30.18198 55.13293,-32.87687 6.02603,-0.72225 11.84586,1.85026 17.64254,1.21513 7.12097,-0.77958 12.8162,-7.50911 19.85226,-7.81455 9.22485,-0.40026 15.00498,18.49269 24.25408,11.90982 h 1.10266 c 3.2771,5.31592 6.36675,8.95028 5.5133,15.43722 l 27.56646,3.30798 -1.10266,-7.71861 c 8.11888,-1.54262 19.29212,-7.12097 20.45432,-16.53988 0.35837,-2.90661 -2.11159,-5.70626 -1.22285,-8.53568 1.45441,-4.62566 5.70295,-5.66877 6.12968,-11.31218 -4.10409,-1.21623 -14.22429,-4.66866 -15.68752,-9.07267 -1.02989,-3.09958 0.71673,-6.24105 -0.86669,-9.35827 -1.34635,-2.64858 -6.74055,-7.26983 -2.71144,-10.18746 3.84387,-2.78311 12.01347,2.43577 17.06034,1.05193 -0.1632,-3.7336 1.68376,-7.38009 1.00011,-11.02658 -0.86559,-4.61353 -4.22429,-9.46302 -3.3576,-14.31803 1.31217,-7.35473 20.73329,-28.65148 0.15217,-29.78832 -1.33422,-8.38903 -9.15317,-6.89603 -15.43722,-9.92393 1.9506,-0.85676 3.76227,-1.68376 5.53975,-2.88124 16.49798,-11.11591 -1.80836,-12.70925 -6.79348,-21.62424 -2.58573,-4.62235 3.79866,-12.42895 -1.44558,-16.09121 -6.15835,-4.299819 -18.38022,0.53005 -23.2264,-5.827221 -3.14368,-4.125818 0.73326,-7.642417 0.0959,-12.000896 -0.42232,-2.888304 -7.41759,-16.893062 -9.45309,-19.134767 -2.18217,-2.402583 -8.72203,1.698977 -12.13146,0.76734 -6.14732,-1.6799 -10.92183,-7.229691 -15.43722,-11.420456 l 3.308,-1.102656 v -3.307976 h -13.2319 c -2.44791,-8.681011 -6.76371,-8.798664 -11.31108,-15.501065 -1.65178,-2.433237 -1.37832,-6.937046 -3.84056,-8.678365 -4.69843,-3.323524 -10.76746,6.753895 -16.77805,4.724672 -6.22782,-2.103101 -4.65543,-10.924701 -10.13343,-12.86097 -11.21184,-3.962083 -28.17734,1.002196 -39.53252,-0.975753 -10.05294,-1.751132 -9.07599,-10.4522445 -19.84896,-3.096155 L 267.82878,9.2377285 M 318.55107,161.40462 c -1.41691,4.59147 -4.17797,5.99295 -8.82127,6.61595 l 8.82127,-6.61595 m 5.5133,15.43722 -1.10266,1.10266 1.10266,-1.10266 M 277.7527,260.6439 c -6.43842,-3.66193 -13.85049,-16.01391 -7.36796,-22.72138 2.58684,-2.67836 12.31559,-7.55652 14.69734,-2.28802 1.64075,3.62664 -1.74221,10.49731 -2.92315,13.98281 -1.27468,3.76228 -2.9011,7.35694 -4.40623,11.02659 m 19.84786,-13.2319 c 0.98798,-19.05174 15.34901,-7.50139 0,0 m -68.36484,2.20531 c -6.7626,-2.16121 -11.07069,-6.46929 -13.2319,-13.2319 10.06617,-2.36079 13.03673,4.06661 13.2319,13.2319 m 6.61595,25.36115 c -13.91775,-4.12504 -27.2489,-21.13465 -29.77178,-35.28507 13.63879,2.75995 28.58532,21.70032 29.77178,35.28507 m 210.60781,-25.36115 c -7.84652,-0.0221 -18.08801,-1.19638 -22.05317,-8.82126 7.36134,-1.79844 19.71443,0.87551 22.05317,8.82126 m -250.30352,-1.10265 v 1.10265 c -5.7261,1.39597 -11.39928,-0.75421 -13.2319,-6.61595 l 13.2319,5.5133 m 256.91947,-4.41064 1.10266,3.30798 -1.10266,-3.30798 m -203.99185,17.64254 -3.30798,-16.53988 c 8.10454,1.40258 7.16618,11.12472 3.30798,16.53988 M 341.70691,247.412 c -4.43931,7.60503 -12.86803,3.31679 -19.84786,5.02922 -8.55222,2.09836 -15.98745,8.5004 -24.25849,11.51066 8.9988,-17.34593 27.50361,-14.44152 44.10635,-16.53988 m 22.05317,1.10266 c -1.52057,4.57934 -4.53744,4.52751 -8.82127,3.30797 l 8.82127,-3.30797 m -99.23928,20.95051 -1.10266,17.64254 c -5.63569,-4.58265 -8.37469,-16.00178 1.10266,-17.64254"
       id="path11293"
       sodipodi:nodetypes="cccccccccccccccsscccccccccccccccccscccccccccccccccccccccccccccccscccccccccccsccccccccccscccccccccccscccccccccccccccccccccccccccccccc" />
  </g>
</svg>
