<?xml version="1.0" encoding="UTF-8" standalone="no"?>
<svg
   xmlns:dc="http://purl.org/dc/elements/1.1/"
   xmlns:cc="http://creativecommons.org/ns#"
   xmlns:rdf="http://www.w3.org/1999/02/22-rdf-syntax-ns#"
   xmlns:svg="http://www.w3.org/2000/svg"
   xmlns="http://www.w3.org/2000/svg"
   xmlns:sodipodi="http://sodipodi.sourceforge.net/DTD/sodipodi-0.dtd"
   xmlns:inkscape="http://www.inkscape.org/namespaces/inkscape"
   width="24.307091in"
   height="18.692909in"
   viewBox="0 0 617.40009 474.79991"
   version="1.1"
   id="svg3763"
   inkscape:version="1.0.2 (e86c8708, 2021-01-15)"
   sodipodi:docname="TreeOne.svg"
   inkscape:export-filename="/Users/michaelwalker/Resume/portfolio_website/src/images/work_photos/TreeOne.png"
   inkscape:export-xdpi="96"
   inkscape:export-ydpi="96">
  <defs
     id="defs3757" />
  <sodipodi:namedview
     id="base"
     pagecolor="#ffffff"
     bordercolor="#666666"
     borderopacity="1.0"
     inkscape:pageopacity="0.0"
     inkscape:pageshadow="2"
     inkscape:zoom="0.35"
     inkscape:cx="1183.9908"
     inkscape:cy="855.30943"
     inkscape:document-units="mm"
     inkscape:current-layer="layer1"
     inkscape:document-rotation="0"
     showgrid="false"
     units="in"
     inkscape:window-width="1920"
     inkscape:window-height="1035"
     inkscape:window-x="1440"
     inkscape:window-y="23"
     inkscape:window-maximized="0"
     inkscape:object-nodes="true"
     inkscape:snap-nodes="false" />
  <metadata
     id="metadata3760">
    <rdf:RDF>
      <cc:Work
         rdf:about="">
        <dc:format>image/svg+xml</dc:format>
        <dc:type
           rdf:resource="http://purl.org/dc/dcmitype/StillImage" />
        <dc:title />
      </cc:Work>
    </rdf:RDF>
  </metadata>
  <g
     inkscape:label="Layer 1"
     inkscape:groupmode="layer"
     id="layer1">
    <path
       style="fill:#008000;stroke:#002300;stroke-width:1.65361;stroke-opacity:1"
       d="m 335.57656,74.805918 c -9.02216,2.104063 -16.53289,1.075511 -21.49706,9.921718 h -11.57533 l -23.15068,-16.536201 -34.72601,8.2681 c 0,0 -10.20109,-12.392906 -17.3869,-12.803814 -12.99418,-0.74305 -33.87532,19.418289 -33.87532,19.418289 -4.20515,12.10202 -17.90042,28.66765 -29.76515,33.0724 l -1.65361,-6.61448 c 0,0 -1.14026,-0.20072 -1.65363,0 -9.08232,3.55104 -21.49705,19.84343 -21.49705,19.84343 -1.47834,-2.26066 -2.83761,-4.84642 -6.1928,-3.72692 -3.70411,1.23508 -5.58428,7.27245 -8.18062,10.0211 -6.88749,7.29064 -25.482277,11.3134 -25.313444,21.81736 l -4.960863,1.65362 4.960863,11.57534 c -3.005458,8.39046 2.160454,16.74125 -8.268105,19.84344 0,0 20.887349,10.18948 12.898149,19.41829 -7.157549,8.26813 -26.631703,-6.99107 -32.741584,2.07876 -0.973857,1.44565 1.653617,4.96086 1.653617,4.96086 0,0 3.666749,19.17494 -5.716811,12.99291 -8.666477,-5.70961 5.480674,15.49234 -1.423349,19.719 -9.038521,5.53301 -23.739693,-1.23691 -33.70011,5.35938 -8.390297,5.55616 -5.906565,18.22786 -15.382792,23.11264 4.685531,7.58184 8.794107,10.21607 6.614476,19.84345 l 16.536191,3.30723 c 11.825041,-15.5523 13.546744,22.06474 24.804303,23.15067 5.176043,0.49929 13.228951,-8.26809 13.228951,-8.26809 v 1.65362 l -8.268092,4.96085 c 0,0 11.631727,8.32264 18.363275,8.40701 11.327391,0.14197 31.245315,-13.36786 31.245315,-13.36786 l -1.65362,8.2681 14.88258,4.96086 c 0,0 38.23043,-4.7024 77.72012,8.26809 -1.58418,7.10892 0.72924,11.02304 8.26809,9.92173 1.9397,-16.098 16.8107,-17.22576 28.11154,-9.92173 h 1.65361 c 10.94366,-11.51911 19.03317,-4.90794 31.41878,0.33734 24.18088,10.23921 22.93248,69.43087 20.0274,93.58695 -5.71929,30.06843 25.16092,55.08316 28.52527,11.38939 -17.31101,-81.96084 2.47968,-74.12972 15.94511,-87.18836 9.05026,-8.77741 16.7859,-29.46253 30.22486,-31.39065 7.03946,-1.01036 11.70101,7.1486 19.10261,4.53753 10.4823,-3.69749 21.86417,-21.07373 34.6301,-18.04099 4.02657,0.95579 6.26226,5.48339 10.29214,6.92536 l 13.22895,26.45792 -6.61447,-1.65362 c 0,0 -2.4681,5.57808 -1.65363,8.26809 0.90357,2.98431 6.61448,6.61448 6.61448,6.61448 l 34.72602,1.65362 13.22895,-21.49706 v 4.96087 h 1.65362 1.65362 l 3.30725,-6.61448 c 0,0 11.06775,16.31844 19.84343,18.18981 5.11421,1.09058 14.88257,-4.96086 14.88257,-4.96086 l -1.65361,-13.22895 c 0,0 27.13272,13.26753 39.68687,8.2681 5.59674,-2.22879 10.31528,-14.83959 10.31528,-14.83959 l 2.91367,-23.19367 c 6.75009,0.99878 11.01311,0.22159 13.22896,-6.61448 0,0 6.70416,3.98892 8.2681,1.65362 2.21174,-3.30262 -6.61448,-9.92173 -6.61448,-9.92173 1.19557,-7.16844 -0.888,-10.80144 -8.2681,-8.26809 1.29314,-3.94057 3.71073,-7.49751 4.88149,-11.42982 5.87531,-19.72768 -20.72316,-13.31329 -28.03216,-21.64258 l 6.61447,1.65363 v -9.92172 h 6.61448 c -3.18818,-8.15235 -10.0259,-9.79274 -18.18982,-8.2681 -4.73762,-6.65252 -15.24471,-9.1131 -23.15067,-9.92172 l 13.22896,-8.2681 v -1.65362 l -1.65362,-4.96085 -14.88257,-3.30725 1.65362,-6.61447 v -6.61449 l -19.84344,-9.92171 -8.2681,-21.49705 c 12.15741,-7.98368 -1.22368,-12.89494 -3.56189,-21.56851 -2.06043,-7.64451 -1.02526,-13.66353 -4.70621,-21.42562 -7.29577,-0.5432 -11.56375,-3.41141 -14.88257,-9.92171 0,0 7.26663,-3.56535 6.61447,-6.61448 -2.59076,-12.112862 -33.01286,-2.73359 -34.72601,-13.228955 l -13.22896,1.653617 -3.30724,-8.268102 -4.96086,1.653626 -18.18982,-8.268101 v 3.307243 h -3.30723 V 69.84505 l -16.5362,-4.960858 c 0.78382,-9.050919 -7.58184,-11.934007 -13.22896,-4.960859 -14.79493,-5.952362 -60.04293,-10.049708 -56.22306,14.882585 m -232.0579,214.419912 -0.55132,1.10131 0.55132,-1.10131 m 51.81335,20.39409 -1.65362,1.65361 -8.2681,-4.96085 1.65364,9.92172 h -1.65364 l -1.65361,-11.57534 11.57533,4.96086 m 128.98234,-1.65362 c -2.20924,10.64435 5.81743,12.78248 9.92172,21.49705 l -23.15069,-9.92171 8.26811,-13.22896 4.96086,1.65362 m -173.63006,4.96086 -13.228964,9.92171 6.614484,-11.57534 6.61448,1.65363 m 200.08797,-1.65363 h 8.26809 l -4.96085,9.92173 h 4.96085 v 1.65361 l -4.96085,3.30725 -3.30724,-14.88259 m 135.59682,3.30724 v 1.65363 l -8.2681,1.65362 v -4.96086 l 8.2681,1.65361 m -255.22428,10.8194 -20.93021,-0.89768 1.27545,-14.45743 m 284.80076,26.03278 c -1.82726,-3.57512 -4.46147,-6.77653 -6.15313,-10.39467 -7.2412,-15.48779 20.78104,-11.13877 11.81842,5.20561 -1.29809,2.36798 -3.61315,3.62473 -5.66529,5.18906 M 87.533609,316.2344 l -6.614476,4.96086 6.614476,-4.96086 m 64.491171,0.55065 0.55066,0.55232 c -0.81524,0.27119 -1.82891,-0.55232 -0.55066,-0.55232 m 8.26809,-0.55065 -4.96086,3.30724 4.96086,-3.30724 m 194.57647,7.71744 -0.55232,1.1013 0.55232,-1.1013 m -27.56088,30.31582 c -2.03396,-9.76463 3.02282,-18.42795 8.2681,-26.45792 20.45031,8.26644 7.17504,21.52847 -8.2681,26.45792 m 128.43168,-25.90727 1.10131,0.55231 -1.10131,-0.55231 m 74.96353,1.10296 -3.30724,4.96087 3.30724,-4.96087 m -67.7984,9.92172 v 4.96087 l -3.30724,-1.65363 v -1.65362 z"
       id="path10073"
       sodipodi:nodetypes="cccccscccscccccccsscscccccacccacccccccccccccccccacccccccsccacccsccccccccccccccccccccsccccccccccccccccccccccccccccccccccccccccccccccscccccccccccccccccccccccccccc" />
  </g>
</svg>
