<?xml version="1.0" encoding="UTF-8" standalone="no"?>
<svg
   xmlns:dc="http://purl.org/dc/elements/1.1/"
   xmlns:cc="http://creativecommons.org/ns#"
   xmlns:rdf="http://www.w3.org/1999/02/22-rdf-syntax-ns#"
   xmlns:svg="http://www.w3.org/2000/svg"
   xmlns="http://www.w3.org/2000/svg"
   xmlns:sodipodi="http://sodipodi.sourceforge.net/DTD/sodipodi-0.dtd"
   xmlns:inkscape="http://www.inkscape.org/namespaces/inkscape"
   width="17.87402in"
   height="11.023623in"
   viewBox="0 0 454.0001 279.99998"
   version="1.1"
   id="svg8"
   inkscape:version="1.0.2 (e86c8708, 2021-01-15)"
   sodipodi:docname="MW_Logo.svg">
  <defs
     id="defs2" />
  <sodipodi:namedview
     id="base"
     pagecolor="#ffffff"
     bordercolor="#666666"
     borderopacity="1.0"
     inkscape:pageopacity="0.0"
     inkscape:pageshadow="2"
     inkscape:zoom="0.35"
     inkscape:cx="400"
     inkscape:cy="560"
     inkscape:document-units="mm"
     inkscape:current-layer="layer1"
     inkscape:document-rotation="0"
     showgrid="false"
     units="in"
     inkscape:window-width="1920"
     inkscape:window-height="1080"
     inkscape:window-x="1440"
     inkscape:window-y="0"
     inkscape:window-maximized="0" />
  <metadata
     id="metadata5">
    <rdf:RDF>
      <cc:Work
         rdf:about="">
        <dc:format>image/svg+xml</dc:format>
        <dc:type
           rdf:resource="http://purl.org/dc/dcmitype/StillImage" />
        <dc:title></dc:title>
      </cc:Work>
    </rdf:RDF>
  </metadata>
  <g
     inkscape:label="Layer 1"
     inkscape:groupmode="layer"
     id="layer1">
    <path
       style="fill:#050000;stroke-width:0.13956;fill-opacity:1"
       d="m 127.95367,264.08655 c 0,-0.31478 -0.36793,-0.38572 -2.72143,-0.52464 -1.29983,-0.0767 -2.90367,-0.27114 -3.83791,-0.46521 -0.88272,-0.18337 -1.91813,-0.37483 -2.30091,-0.42545 -0.38278,-0.0506 -0.85507,-0.17431 -1.04952,-0.27487 -0.19446,-0.10055 -0.71184,-0.24906 -1.14974,-0.33001 -0.4379,-0.081 -0.97974,-0.2421 -1.20409,-0.35812 -0.22435,-0.11601 -0.71161,-0.27901 -1.08281,-0.36218 -0.3712,-0.0832 -0.77105,-0.23826 -0.88857,-0.34462 -0.11751,-0.10635 -0.48413,-0.25413 -0.81471,-0.3284 -0.33058,-0.0743 -0.70647,-0.23002 -0.8353,-0.34611 -0.12884,-0.11607 -0.41586,-0.25639 -0.63782,-0.31181 -0.43563,-0.10874 -2.44232,-1.10781 -2.65978,-1.32421 -0.0729,-0.0726 -0.22086,-0.13195 -0.32875,-0.13195 -0.1079,0 -0.37186,-0.1413 -0.58658,-0.31401 -0.21472,-0.1727 -0.71576,-0.50241 -1.11341,-0.73269 -0.39766,-0.23027 -0.79766,-0.48737 -0.88889,-0.57132 -0.15374,-0.14146 -1.08714,-0.78008 -1.61271,-1.1034 -0.12477,-0.0768 -0.35575,-0.26517 -0.51328,-0.41869 -0.15753,-0.15351 -0.50178,-0.44754 -0.765,-0.65338 -1.07471,-0.84044 -1.49102,-1.21509 -2.63272,-2.36927 -0.657422,-0.66462 -1.415112,-1.50335 -1.683772,-1.86386 -0.26865,-0.36051 -0.62976,-0.79738 -0.80247,-0.97082 -0.1727,-0.17343 -0.31401,-0.3769 -0.31401,-0.45215 0,-0.0753 -0.124,-0.24903 -0.27556,-0.38619 -0.15155,-0.13716 -0.31715,-0.3824 -0.36799,-0.54499 -0.0508,-0.16257 -0.24086,-0.47312 -0.42225,-0.69009 -0.18139,-0.21698 -0.3298,-0.50309 -0.3298,-0.6358 0,-0.13272 -0.15701,-0.45412 -0.3489,-0.71421 -0.1919,-0.2601 -0.34891,-0.57784 -0.34891,-0.7061 0,-0.12825 -0.12341,-0.39008 -0.27425,-0.58185 -0.15085,-0.19176 -0.34096,-0.64626 -0.42247,-1.00999 -0.0815,-0.36373 -0.23394,-0.82762 -0.33873,-1.03087 -0.1048,-0.20325 -0.29077,-0.87196 -0.41328,-1.48603 -0.12251,-0.61407 -0.31881,-1.4619 -0.43623,-1.88407 -0.1523,-0.54753 -0.20277,-1.2778 -0.17608,-2.54741 0.0374,-1.77932 0.15284,-2.1384 0.48074,-1.49547 0.0903,0.17707 0.26301,0.37726 0.38379,0.44485 0.12077,0.0676 0.21959,0.20148 0.21959,0.29756 0,0.14825 0.47514,0.9113 1.39561,2.24125 0.20668,0.29863 0.84908,1.15184 1.25604,1.6682 0.89179,1.13155 4.316972,4.13608 4.715152,4.13608 0.0744,0 0.22148,0.1044 0.32683,0.23202 0.10534,0.12761 0.44275,0.35151 0.74978,0.49756 0.30703,0.14605 0.92394,0.48007 1.37091,0.74227 0.44697,0.2622 1.07499,0.54656 1.39561,0.63191 0.32061,0.0853 0.67815,0.23998 0.79452,0.34363 0.11638,0.10365 0.51531,0.25651 0.8865,0.3397 0.3712,0.0832 0.8438,0.23858 1.05022,0.34533 0.20642,0.10674 0.86202,0.26177 1.4569,0.3445 0.59488,0.0828 1.28311,0.25788 1.5294,0.38921 0.37838,0.20175 0.88054,0.2397 3.23901,0.24483 2.55181,0.006 2.86607,-0.0209 3.66402,-0.30794 0.48005,-0.1727 1.03146,-0.31401 1.22536,-0.31401 0.1939,0 0.72558,-0.15701 1.1815,-0.3489 0.45593,-0.1919 0.9471,-0.3489 1.0915,-0.3489 0.14439,0 0.5388,-0.14654 0.87645,-0.32565 0.33766,-0.17911 0.79737,-0.37141 1.02159,-0.42734 0.22422,-0.0559 0.5624,-0.22339 0.75151,-0.37215 0.18912,-0.14876 0.44878,-0.27047 0.57704,-0.27047 0.12825,0 0.44599,-0.157 0.70609,-0.3489 0.2601,-0.19189 0.56724,-0.3489 0.68252,-0.3489 0.11529,0 0.4485,-0.157 0.74047,-0.3489 0.29197,-0.1919 0.76636,-0.49584 1.05421,-0.67546 0.741,-0.46235 1.22401,-0.78196 2.35173,-1.55614 0.63524,-0.4361 1.49308,-1.09232 1.8267,-1.39739 0.16763,-0.15328 0.63094,-0.56131 1.02957,-0.90672 1.31978,-1.14359 3.95148,-3.8161 5.49716,-5.58242 0.64624,-0.73849 1.75061,-2.14549 1.75061,-2.23033 0,-0.0558 0.15663,-0.28332 0.34806,-0.50561 0.44614,-0.51807 0.79575,-0.94862 1.4047,-1.73 0.2692,-0.34541 0.62867,-0.79355 0.79884,-0.99587 0.17016,-0.20231 0.43499,-0.5312 0.58851,-0.73084 0.15352,-0.19965 0.43613,-0.53991 0.62802,-0.75614 0.1919,-0.21622 0.69431,-0.79492 1.11648,-1.28599 1.61974,-1.88411 3.86917,-4.03078 4.57061,-4.36184 0.17271,-0.0815 0.31401,-0.19238 0.31401,-0.24639 0,-0.054 0.28261,-0.20612 0.62802,-0.33803 0.34541,-0.13192 0.62802,-0.29504 0.62802,-0.36249 0,-0.0674 0.26691,-0.19401 0.59314,-0.28123 0.32622,-0.0872 0.84434,-0.27188 1.15137,-0.41032 1.59301,-0.71831 7.13652,-0.71691 8.58297,0.002 0.26865,0.13356 0.70827,0.29008 0.97692,0.34783 0.26865,0.0577 0.63824,0.22241 0.82129,0.36592 0.18306,0.14351 0.4101,0.26094 0.50453,0.26094 0.0944,0 0.32278,0.11884 0.50742,0.26408 0.18465,0.14524 0.53167,0.38075 0.77115,0.52335 0.23949,0.1426 0.73241,0.46633 1.09539,0.71938 0.60175,0.41953 0.68099,0.44106 0.89849,0.24423 0.1312,-0.11873 0.3121,-0.21587 0.402,-0.21587 0.0899,0 0.28647,-0.123 0.4368,-0.27333 0.15033,-0.15034 0.53729,-0.41725 0.85992,-0.59314 1.68568,-0.919 2.57617,-1.3665 2.71924,-1.3665 0.0876,0 0.44576,-0.12672 0.7959,-0.28161 1.53881,-0.68069 7.15486,-0.68663 8.66147,-0.009 0.31702,0.14255 0.77756,0.30204 1.02342,0.35442 0.24586,0.0524 0.59127,0.20786 0.76758,0.34551 0.17631,0.13764 0.47757,0.29934 0.66947,0.35932 0.19189,0.06 0.54323,0.25703 0.78075,0.43789 0.23752,0.18084 0.48212,0.32882 0.54356,0.32882 0.12109,0 0.10926,-0.0108 1.95536,1.78228 1.32809,1.28993 2.09585,2.14905 2.98871,3.3443 0.30009,0.40174 0.62963,0.8191 0.7323,0.92745 0.10267,0.10835 0.34368,0.40079 0.53558,0.64988 0.1919,0.24907 0.49031,0.61674 0.66315,0.81705 0.17284,0.20031 0.67071,0.83522 1.10639,1.4109 0.43567,0.57569 1.20571,1.54912 1.71121,2.16319 0.50549,0.61407 1.10549,1.36769 1.33333,1.67473 0.47146,0.63532 5.76304,5.93131 5.92637,5.93131 0.10252,0 0.77243,0.49278 1.56783,1.15328 0.66047,0.54844 1.00205,0.79408 1.78732,1.28535 0.42217,0.2641 0.85785,0.56138 0.96818,0.66062 0.20537,0.18474 0.95587,0.6067 1.82069,1.02368 0.26737,0.12892 0.63695,0.35303 0.8213,0.49805 0.18434,0.145 0.4401,0.26364 0.56836,0.26364 0.12825,0 0.44599,0.15701 0.70609,0.3489 0.2601,0.1919 0.57061,0.34947 0.69003,0.35017 0.11941,10e-4 0.53112,0.15575 0.91491,0.34455 0.3838,0.18878 0.79444,0.34522 0.91253,0.34762 0.1181,0.002 0.45312,0.12591 0.74448,0.27444 0.29136,0.14855 0.84159,0.33697 1.22274,0.41871 0.38114,0.0817 0.87298,0.24169 1.09294,0.35545 1.00147,0.51788 6.95072,0.52424 7.94807,0.009 0.24957,-0.12905 0.82929,-0.29513 1.28828,-0.36904 0.45897,-0.0739 1.06508,-0.25799 1.34692,-0.40905 0.28185,-0.15105 0.60757,-0.27521 0.72385,-0.27591 0.11627,-0.001 0.52541,-0.15575 0.90921,-0.34455 0.38379,-0.18878 0.76684,-0.34522 0.85122,-0.34762 0.0844,-0.002 0.61819,-0.25507 1.18626,-0.56149 0.56807,-0.30642 1.26835,-0.66135 1.5562,-0.78875 0.28784,-0.12739 0.52335,-0.2833 0.52335,-0.34643 0,-0.0632 0.20411,-0.21971 0.45357,-0.34793 2.16596,-1.11323 5.82834,-4.89625 7.20542,-7.44278 0.10589,-0.19579 0.30278,-0.4816 0.43754,-0.63512 0.13476,-0.15351 0.28347,-0.40472 0.33048,-0.55824 0.12515,-0.40881 0.91761,-1.2064 1.09171,-1.0988 0.19498,0.12051 0.036,2.67572 -0.23014,3.69905 -0.10717,0.41207 -0.26695,1.28302 -0.35507,1.93547 -0.0881,0.65244 -0.2417,1.31248 -0.34129,1.46674 -0.0996,0.15425 -0.25403,0.62062 -0.34319,1.03636 -0.0892,0.41575 -0.27924,0.94895 -0.42238,1.18491 -0.14315,0.23597 -0.30249,0.62879 -0.35408,0.87295 -0.0516,0.24416 -0.18076,0.51609 -0.28704,0.60429 -0.10627,0.0882 -0.26839,0.39086 -0.36023,0.67256 -0.0918,0.2817 -0.28346,0.66196 -0.42581,0.84502 -0.14235,0.18305 -0.25883,0.39694 -0.25883,0.47529 0,0.0784 -0.15701,0.3483 -0.3489,0.59989 -0.1919,0.25158 -0.3489,0.49329 -0.3489,0.53711 0,0.10335 -1.37059,1.90267 -2.13076,2.79728 -0.7076,0.83274 -1.594,1.71887 -2.62329,2.62247 -1.07084,0.94008 -1.10155,0.96492 -1.85676,1.50224 -0.37372,0.26589 -0.82054,0.62474 -0.99292,0.79745 -0.1724,0.1727 -0.37356,0.31401 -0.44703,0.31401 -0.0735,0 -0.38029,0.18666 -0.68181,0.4148 -0.3015,0.22814 -0.62358,0.41655 -0.71572,0.41868 -0.0921,0.002 -0.21774,0.0873 -0.27912,0.18919 -0.0614,0.10192 -0.34742,0.30603 -0.63563,0.45357 -2.73036,1.39773 -4.26979,2.15233 -4.39082,2.15233 -0.0797,0 -0.22025,0.0908 -0.31231,0.20168 -0.0921,0.11091 -0.50313,0.27137 -0.9135,0.35656 -0.41038,0.0852 -0.81787,0.24133 -0.90554,0.34696 -0.0877,0.10564 -0.47244,0.25919 -0.85506,0.34126 -0.38261,0.0821 -0.8825,0.2458 -1.11085,0.36389 -0.22835,0.11808 -0.77345,0.28093 -1.21135,0.36188 -0.4379,0.081 -0.95705,0.23037 -1.15367,0.33204 -0.19661,0.10167 -0.8259,0.25005 -1.39842,0.32971 -0.57252,0.0797 -1.31798,0.24263 -1.65657,0.36213 -0.34312,0.1211 -1.54778,0.28059 -2.72143,0.3603 -2.34115,0.15902 -3.1525,0.3203 -3.1525,0.62666 0,0.17283 -0.49753,0.20374 -3.27967,0.20374 -2.73699,0 -3.27967,-0.0327 -3.27967,-0.19777 0,-0.27341 -0.98014,-0.45981 -3.00055,-0.57065 -0.9211,-0.0505 -2.12777,-0.21149 -2.68149,-0.3577 -0.55372,-0.14622 -1.37015,-0.30773 -1.81428,-0.35891 -0.44414,-0.0512 -1.20147,-0.24041 -1.68296,-0.4205 -0.4815,-0.18009 -1.03291,-0.32743 -1.22536,-0.32743 -0.19246,0 -0.72295,-0.15701 -1.17888,-0.34891 -0.45592,-0.19189 -0.94074,-0.34947 -1.07738,-0.35017 -0.13664,-10e-4 -0.56245,-0.15575 -0.94624,-0.34454 -0.38379,-0.18879 -0.80768,-0.34522 -0.94196,-0.34762 -0.13429,-0.002 -0.5425,-0.15675 -0.90715,-0.343 -0.36464,-0.18623 -1.03979,-0.50462 -1.50034,-0.7075 -0.46055,-0.20289 -0.99437,-0.4576 -1.18627,-0.56604 -0.19189,-0.10844 -0.56765,-0.29944 -0.83502,-0.42445 -0.26736,-0.12502 -0.63694,-0.34593 -0.82129,-0.49094 -0.18435,-0.14501 -0.44258,-0.26365 -0.57384,-0.26365 -0.13127,0 -0.35021,-0.12324 -0.48652,-0.27387 -0.13632,-0.15061 -0.46006,-0.34389 -0.71943,-0.4295 -0.25938,-0.0856 -0.47159,-0.2123 -0.47159,-0.28153 0,-0.0693 -0.23551,-0.25504 -0.52335,-0.41286 -0.28784,-0.15783 -0.77456,-0.47505 -1.08159,-0.70494 -0.30704,-0.22987 -0.71222,-0.52576 -0.90041,-0.65751 -0.18819,-0.13176 -0.47607,-0.36534 -0.63973,-0.51907 -0.16365,-0.15372 -0.66638,-0.59352 -1.11716,-0.97731 -0.45078,-0.38379 -1.13633,-1.03682 -1.52346,-1.45116 -0.38712,-0.41436 -1.03647,-1.10518 -1.44299,-1.53517 -0.96126,-1.01677 -0.92197,-0.97148 -2.25246,-2.59609 -0.62862,-0.76758 -1.38909,-1.67634 -1.68995,-2.01948 l -0.54701,-0.62388 -0.5501,0.53716 c -0.30256,0.29543 -0.58788,0.68768 -0.63406,0.87165 -0.0462,0.18398 -0.19226,0.45431 -0.32463,0.60075 -0.13238,0.14643 -0.41609,0.50594 -0.63048,0.79892 -1.02082,1.39503 -1.2539,1.69617 -1.8073,2.33516 -0.95294,1.10033 -3.77438,3.84972 -3.95059,3.84972 -0.0535,0 -1.28289,0.90258 -2.3655,1.73665 -0.60348,0.46495 -1.54316,1.04961 -1.69079,1.05202 -0.0856,0.001 -0.33259,0.14174 -0.54888,0.31186 -0.42264,0.33246 -0.91258,0.61609 -1.82446,1.0562 -0.31632,0.15266 -0.6155,0.34291 -0.66486,0.42277 -0.0494,0.0798 -0.32437,0.22052 -0.61114,0.31258 -0.28677,0.0921 -0.61561,0.24781 -0.73075,0.3461 -0.11514,0.0983 -0.48067,0.25097 -0.81229,0.33928 -0.33162,0.0883 -0.80264,0.28232 -1.0467,0.43115 -0.24407,0.14881 -0.54431,0.2708 -0.6672,0.2711 -0.12289,0 -0.51873,0.15752 -0.87964,0.34941 -0.3609,0.1919 -0.79659,0.3489 -0.9682,0.3489 -0.1716,0 -0.55729,0.12505 -0.85708,0.2779 -0.29979,0.15284 -0.92272,0.34637 -1.38429,0.43007 -0.46158,0.0837 -1.01759,0.24442 -1.2356,0.35716 -0.21801,0.11274 -0.93219,0.26585 -1.58708,0.34026 -0.65488,0.0744 -1.42114,0.23159 -1.70279,0.34927 -0.32582,0.13614 -1.51475,0.28439 -3.26838,0.40757 -1.51596,0.10647 -2.81918,0.23245 -2.89605,0.27996 -0.0769,0.0475 -0.13975,0.17687 -0.13975,0.28748 0,0.16839 -0.45398,0.2011 -2.79121,0.2011 -2.29276,0 -2.79121,-0.0347 -2.79121,-0.1944 z M 110.22949,196.5972 c -0.42217,-0.0633 -1.22703,-0.12123 -1.78857,-0.12882 -0.56154,-0.008 -1.12989,-0.0721 -1.263,-0.14333 -0.1331,-0.0712 -1.0239,-0.17051 -1.97956,-0.22064 -1.13654,-0.0596 -2.14787,-0.20373 -2.92381,-0.41669 -0.65245,-0.17907 -1.55279,-0.36357 -2.00076,-0.41001 -0.447972,-0.0464 -0.984462,-0.17233 -1.192192,-0.27975 -0.20774,-0.10743 -0.78325,-0.26779 -1.27892,-0.35637 -0.49566,-0.0886 -1.04074,-0.25098 -1.21127,-0.36092 -0.17052,-0.10993 -0.64154,-0.26924 -1.0467,-0.35403 -0.40516,-0.0848 -0.93247,-0.27291 -1.1718,-0.41806 -0.23934,-0.14514 -0.5416,-0.26389 -0.67171,-0.26389 -0.21779,0 -1.82555,-0.68759 -2.31237,-0.98893 -0.11514,-0.0713 -0.36634,-0.19746 -0.55824,-0.28042 -0.1919,-0.083 -0.50591,-0.23867 -0.6978,-0.34601 -0.1919,-0.10735 -0.60752,-0.3209 -0.9236,-0.47454 -0.31608,-0.15366 -0.65348,-0.37432 -0.74978,-0.49035 -0.0963,-0.11603 -0.25296,-0.21096 -0.34815,-0.21096 -0.0952,0 -0.41014,-0.18841 -0.6999,-0.41868 -0.28976,-0.23028 -0.57816,-0.41868 -0.64087,-0.41868 -0.0627,0 -0.26522,-0.14131 -0.45002,-0.31401 -0.5028,-0.4699 -1.6248,-1.40204 -1.97385,-1.63984 -0.78164,-0.53251 -3.0745,-3.21994 -4.05284,-4.7503 -0.30704,-0.48027 -0.60382,-0.94247 -0.65953,-1.02711 -0.0557,-0.0847 -0.19575,-0.37372 -0.31121,-0.64237 -0.11545,-0.26865 -0.26764,-0.58266 -0.3382,-0.6978 -0.37267,-0.60814 -0.85305,-1.74001 -0.93335,-2.19915 -0.0502,-0.28726 -0.20484,-0.72122 -0.34355,-0.96438 -0.13871,-0.24316 -0.29558,-0.80838 -0.3486,-1.25604 -0.053,-0.44767 -0.20808,-1.07278 -0.34459,-1.38913 -0.13651,-0.31636 -0.29452,-0.97436 -0.35114,-1.46223 -0.0566,-0.48786 -0.19431,-1.13967 -0.30598,-1.44844 -0.11166,-0.30877 -0.29299,-1.1469 -0.40297,-1.86251 -0.10998,-0.71561 -0.28607,-1.46923 -0.39133,-1.67472 -0.10525,-0.20549 -0.23793,-0.78041 -0.29483,-1.27761 -0.0569,-0.49718 -0.19324,-1.15661 -0.30298,-1.46538 -0.10974,-0.30877 -0.29306,-1.18296 -0.40737,-1.94264 -0.11432,-0.7597 -0.27327,-1.50349 -0.35322,-1.65289 -0.0799,-0.1494 -0.23066,-0.87808 -0.3349,-1.6193 -0.10424,-0.74122 -0.28036,-1.56748 -0.39138,-1.83613 -0.11101,-0.26865 -0.24464,-0.89668 -0.29694,-1.39561 -0.0523,-0.49892 -0.20889,-1.25255 -0.34799,-1.67472 -0.13909,-0.42217 -0.2971,-1.2072 -0.35112,-1.74451 -0.054,-0.5373 -0.21604,-1.24652 -0.36003,-1.57604 -0.14399,-0.3295 -0.3033,-0.83192 -0.35402,-1.11648 -0.0507,-0.28455 -0.20183,-0.64297 -0.33579,-0.79649 -0.13396,-0.15351 -0.28708,-0.4625 -0.34027,-0.68662 -0.10951,-0.46148 -1.22667,-1.87612 -1.75421,-2.22131 -0.19189,-0.12557 -0.69431,-0.48028 -1.11648,-0.78826 -0.42217,-0.30796 -0.82879,-0.56004 -0.9036,-0.56017 -0.0748,-1.3e-4 -0.33542,-0.22437 -0.57915,-0.49832 -0.33854,-0.38054 -0.4813,-0.71815 -0.60487,-1.4305 -0.25959,-1.49648 -0.27995,-1.56042 -0.49691,-1.56042 -0.17597,0 -0.20668,-0.43544 -0.20668,-2.93077 0,-2.45082 0.0327,-2.93077 0.19994,-2.93077 0.28336,0 0.40121,-0.48344 0.29329,-1.20311 -0.13524,-0.90182 0.24226,-2.08776 0.872,-2.73947 0.27814,-0.28785 0.58404,-0.52335 0.67978,-0.52335 0.0958,0 0.23233,-0.10407 0.30351,-0.23126 0.10169,-0.18172 0.48435,-0.26013 1.78633,-0.36603 0.9113,-0.0741 1.73541,-0.19756 1.83136,-0.27429 0.20309,-0.16243 0.23504,-0.88879 0.0443,-1.00669 -0.0716,-0.0442 -0.20084,-0.44047 -0.28722,-0.88049 -0.0864,-0.44002 -0.27122,-1.08265 -0.41076,-1.42806 -0.13955,-0.34541 -0.29476,-0.95532 -0.34491,-1.35535 -0.0502,-0.40003 -0.21296,-1.10856 -0.36182,-1.57451 -0.19874,-0.62211 -0.31084,-1.59677 -0.422,-3.66882 -0.0832,-1.5519 -0.21011,-3.04145 -0.28191,-3.31011 -0.0718,-0.26865 -0.19804,-1.5875 -0.28054,-2.93077 -0.0825,-1.34327 -0.266,-2.94472 -0.4078,-3.55879 -0.14179,-0.61406 -0.30106,-1.5561 -0.35392,-2.09341 -0.0529,-0.5373 -0.1887,-1.19673 -0.30187,-1.46538 -0.11316,-0.26865 -0.29441,-1.39909 -0.40277,-2.51209 -0.10835,-1.11299 -0.25764,-2.24343 -0.33174,-2.51208 -0.19585,-0.71007 -0.282,-4.672273 -0.14565,-6.698906 0.18916,-2.811667 0.64984,-6.840685 0.88565,-7.745604 0.12001,-0.46055 0.27964,-1.339781 0.35474,-1.953847 0.0751,-0.614065 0.22734,-1.336291 0.33831,-1.604945 0.11097,-0.268653 0.24759,-0.833873 0.30361,-1.256044 0.056,-0.42217 0.21475,-0.990311 0.35273,-1.262534 0.13799,-0.272226 0.29608,-0.743242 0.35132,-1.046704 0.0552,-0.303463 0.24888,-0.833861 0.43033,-1.178662 0.18145,-0.344802 0.32991,-0.728846 0.32991,-0.853431 0,-0.124587 0.11647,-0.376296 0.25882,-0.559353 0.14235,-0.183057 0.33397,-0.563316 0.42582,-0.84502 0.0918,-0.281703 0.25799,-0.587703 0.3692,-0.68 0.11121,-0.0923 0.20334,-0.238626 0.20474,-0.325175 10e-4,-0.08655 0.1741,-0.419502 0.38379,-0.739892 0.20969,-0.320392 0.56966,-0.904111 0.79993,-1.297155 0.23028,-0.393045 0.54429,-0.864032 0.69781,-1.04664 0.15351,-0.182606 0.43612,-0.559204 0.62802,-0.836882 0.81407,-1.177985 1.44549,-1.997159 2.02645,-2.629038 1.56783,-1.705247 1.72272,-1.961444 1.86147,-3.079044 0.0734,-0.591597 0.20022,-1.155975 0.28172,-1.254171 0.0815,-0.0982 0.2142,-0.771048 0.2949,-1.495221 0.0807,-0.724175 0.26605,-1.693495 0.41188,-2.154045 0.14583,-0.460549 0.30672,-1.151373 0.35754,-1.535165 0.0508,-0.383791 0.20607,-0.957437 0.34499,-1.274768 0.13893,-0.317333 0.29678,-0.851152 0.35078,-1.186264 0.054,-0.335114 0.18398,-0.744771 0.28885,-0.910353 0.10486,-0.16558 0.26427,-0.605195 0.35424,-0.976923 0.09,-0.371726 0.28075,-0.871687 0.42396,-1.111021 0.1432,-0.239335 0.26036,-0.516982 0.26036,-0.616994 0,-0.167422 0.32735,-0.910043 1.19812,-2.717987 0.18537,-0.384894 0.33705,-0.767673 0.33705,-0.850624 0,-0.08295 0.11995,-0.259375 0.26656,-0.392058 0.14662,-0.132683 0.3064,-0.399926 0.35508,-0.593872 0.0487,-0.193947 0.21133,-0.534737 0.36145,-0.757312 0.15012,-0.222574 0.39417,-0.584617 0.54233,-0.804541 0.14816,-0.219923 0.36477,-0.628138 0.48134,-0.907143 0.11658,-0.279005 0.26843,-0.507282 0.33745,-0.507282 0.069,0 0.23876,-0.251209 0.37721,-0.558242 0.13846,-0.307033 0.29337,-0.558242 0.34425,-0.558242 0.0509,0 0.19734,-0.219808 0.32545,-0.488461 0.12811,-0.268654 0.29252,-0.488462 0.36534,-0.488462 0.0728,0 0.17053,-0.120093 0.21712,-0.266873 0.0466,-0.146781 0.26847,-0.507894 0.49306,-0.802473 0.2246,-0.29458 0.52043,-0.683744 0.6574,-0.86481 0.13697,-0.181064 0.41219,-0.526476 0.61161,-0.767582 0.19942,-0.241105 0.59808,-0.752383 0.8859,-1.136174 0.8266,-1.102208 1.52667,-1.868714 3.92071,-4.292816 2.29297,-2.321754 3.09411,-3.058474 4.3283,-3.980217 0.38786,-0.289663 0.79607,-0.60425 0.90715,-0.699083 0.40355,-0.344534 1.232592,-0.94308 1.684002,-1.215796 0.25411,-0.153517 0.59616,-0.373324 0.76012,-0.488462 0.16396,-0.115137 0.48017,-0.329302 0.7027,-0.475922 0.22252,-0.146619 0.62777,-0.413529 0.90055,-0.593132 0.27278,-0.179603 0.56136,-0.32655 0.64128,-0.32655 0.0799,0 0.25388,-0.119957 0.38656,-0.266569 0.13269,-0.146614 0.40933,-0.308275 0.61476,-0.359247 0.20544,-0.05097 0.49913,-0.20589 0.65265,-0.344263 0.15351,-0.138372 0.5096,-0.325335 0.7913,-0.415474 0.28171,-0.09014 0.58771,-0.254881 0.68,-0.366091 0.0923,-0.111212 0.27003,-0.202438 0.39496,-0.202727 0.12493,-2.79e-4 0.60395,-0.18846 1.0645,-0.418157 0.46055,-0.229697 0.92187,-0.417867 1.02516,-0.418156 0.10329,-2.79e-4 0.35662,-0.120735 0.56296,-0.26766 0.20633,-0.146925 0.62424,-0.312422 0.92868,-0.36777 0.30445,-0.05535 0.77334,-0.210223 1.042,-0.344163 0.26865,-0.13394 0.76264,-0.289203 1.09775,-0.34503 0.33512,-0.05583 0.86894,-0.215531 1.18627,-0.354899 0.31733,-0.139369 1.04855,-0.318289 1.62492,-0.397601 0.57638,-0.07931 1.2358,-0.235218 1.46539,-0.346457 0.22978,-0.111337 1.28992,-0.276221 2.35837,-0.366799 1.06752,-0.0905 2.09845,-0.22443 2.29097,-0.297623 0.19251,-0.07319 1.95678,-0.155804 3.92059,-0.183577 3.69508,-0.05226 4.16885,-0.102062 4.75684,-0.500034 0.3277,-0.221803 0.63813,-0.427411 1.51776,-1.005261 0.56431,-0.370713 0.74627,-0.495101 1.27345,-0.870531 0.26865,-0.191324 0.69256,-0.455127 0.94203,-0.586229 0.24946,-0.131102 0.45357,-0.284668 0.45357,-0.341257 0,-0.05659 0.21221,-0.172926 0.47159,-0.258526 0.25937,-0.0856 0.58311,-0.278878 0.71943,-0.429505 0.13631,-0.150626 0.35495,-0.273867 0.48586,-0.273867 0.13091,0 0.46938,-0.157005 0.75215,-0.348901 0.28277,-0.191895 0.58985,-0.349136 0.68239,-0.349423 0.0925,-2.93e-4 0.38806,-0.138012 0.65671,-0.306056 0.48275,-0.30196 1.08334,-0.55321 2.44231,-1.021715 0.38379,-0.132311 0.91761,-0.350113 1.18626,-0.484005 0.26866,-0.133892 0.79878,-0.288964 1.17806,-0.344606 0.37927,-0.05564 0.97589,-0.212903 1.32582,-0.349471 0.34993,-0.136568 1.01305,-0.291111 1.4736,-0.34343 0.46055,-0.05232 1.24557,-0.212691 1.7445,-0.356383 0.49893,-0.143692 1.37666,-0.302714 1.95052,-0.353381 0.57385,-0.05067 1.29608,-0.181407 1.60494,-0.290532 0.30887,-0.109125 1.20701,-0.291035 1.99587,-0.404244 0.78886,-0.113209 1.55993,-0.273075 1.71349,-0.355258 0.15356,-0.08218 1.02934,-0.237339 1.94617,-0.344792 0.91683,-0.107453 1.77923,-0.255448 1.91643,-0.328878 0.13721,-0.07343 1.19089,-0.236049 2.34152,-0.361375 1.15063,-0.125325 2.22993,-0.285289 2.39844,-0.355475 0.16852,-0.07019 1.67577,-0.22715 3.34945,-0.348811 3.48862,-0.25359 3.67108,-0.281522 3.67108,-0.561966 0,-0.17996 0.96534,-0.206682 7.46649,-0.206682 6.50114,0 7.46648,0.02672 7.46648,0.206682 0,0.276849 0.20042,0.310726 3.31089,0.559651 1.47557,0.118088 2.85722,0.281328 3.07033,0.362756 0.2131,0.08143 1.13546,0.240688 2.04968,0.353912 0.91422,0.113223 1.77155,0.264376 1.90519,0.335896 0.13363,0.07152 0.85622,0.228716 1.60574,0.349326 0.74952,0.12061 1.47535,0.279547 1.61296,0.353193 0.13761,0.07365 0.7709,0.232655 1.40732,0.353354 0.63642,0.1207 1.22869,0.278812 1.31615,0.351361 0.0875,0.07255 0.61354,0.226672 1.16903,0.342495 0.55549,0.115823 1.17691,0.296914 1.38095,0.402423 0.20404,0.105509 0.61917,0.238399 0.92255,0.295311 0.30336,0.05691 0.8664,0.25009 1.25121,0.429283 0.38481,0.179193 0.82525,0.326833 0.97877,0.328089 0.15352,0.0013 0.46656,0.125835 0.69565,0.276844 0.22911,0.151008 0.68275,0.314479 1.00809,0.363269 0.32536,0.04879 0.724,0.203576 0.88587,0.343972 0.16188,0.140396 0.49327,0.298398 0.73642,0.351115 0.24316,0.05272 0.66191,0.208383 0.93056,0.345924 0.26866,0.13754 1.65031,0.826455 3.07033,1.530922 1.42003,0.704466 2.83308,1.431709 3.14011,1.616095 0.30704,0.184386 0.82256,0.462818 1.1456,0.618737 0.32304,0.15592 0.62016,0.336579 0.66026,0.401465 0.0401,0.06489 0.49802,0.380882 1.01759,0.702212 0.51958,0.321331 1.22729,0.801083 1.57271,1.066115 0.34541,0.265032 0.78659,0.55957 0.98041,0.654528 0.19381,0.09496 0.47642,0.285015 0.62802,0.422348 0.23762,0.215258 1.15553,0.949386 2.62058,2.095889 0.50724,0.396949 0.95736,0.788414 2.27759,1.980789 0.59492,0.537307 1.27407,1.146205 1.50923,1.353107 0.75579,0.664953 4.9702,4.696055 7.06895,6.761475 1.11973,1.101953 2.08022,2.00355 2.13439,2.00355 0.0542,0 0.42879,0.329711 0.83248,0.732692 0.93474,0.933105 1.79016,1.688272 2.67307,2.359773 0.96925,0.737162 1.27218,0.971022 1.78631,1.379029 0.24566,0.194955 0.60366,0.431465 0.79556,0.525579 0.1919,0.09411 0.63151,0.357519 0.97692,0.585344 0.34542,0.227826 0.78503,0.483641 0.97693,0.56848 0.19189,0.08484 0.64076,0.305647 0.99749,0.490688 0.35672,0.18504 0.76081,0.336437 0.89797,0.336437 0.13715,0 0.50471,0.121719 0.8168,0.270486 0.31207,0.148766 1.10123,0.369965 1.75367,0.491553 0.65245,0.121588 1.53168,0.288313 1.95385,0.370503 0.9256,0.180201 2.92693,0.06154 3.69835,-0.219276 0.30703,-0.111767 0.77254,-0.20597 1.03443,-0.209339 0.26192,-0.0034 0.73293,-0.155114 1.04671,-0.337211 0.31379,-0.182097 0.71829,-0.376793 0.89891,-0.432655 1.10797,-0.342669 4.61656,-3.31395 5.25401,-4.449412 0.16473,-0.293409 0.48827,-0.20641 0.74174,0.199444 0.0976,0.156308 0.24623,0.830219 0.33026,1.49758 0.084,0.66736 0.23707,1.380555 0.34009,1.584877 0.10302,0.204324 0.28261,1.209159 0.39909,2.232968 0.27207,2.391428 0.29702,2.489493 0.6338,2.489493 0.26699,0 0.27645,0.102659 0.27645,3.000549 0,2.89789 -0.009,3.00055 -0.27645,3.00055 -0.32593,0 -0.35351,0.09685 -0.61588,2.163186 -0.10721,0.844341 -0.29344,1.754973 -0.41385,2.023627 -0.1204,0.268654 -0.28743,0.844748 -0.37118,1.28021 -0.0837,0.435461 -0.2381,0.862992 -0.34303,0.950066 -0.10492,0.08708 -0.23227,0.404064 -0.28302,0.704419 -0.0507,0.300355 -0.21265,0.699159 -0.3598,0.886231 -0.14716,0.187072 -0.26756,0.430679 -0.26756,0.541349 0,0.110669 -0.18726,0.477576 -0.41614,0.81535 -0.22888,0.337773 -0.41843,0.676935 -0.42122,0.753693 -0.005,0.133638 -0.6046,1.087853 -1.05258,1.674726 -0.11719,0.153516 -0.39661,0.530329 -0.62094,0.837362 -0.93602,1.281109 -1.21821,1.638203 -1.81549,2.297446 -1.31513,1.451564 -1.23392,1.207463 -1.40089,4.210932 -0.0826,1.486436 -0.20648,2.891018 -0.27519,3.121293 -0.0687,0.230274 -0.22321,2.271346 -0.34333,4.535714 -0.12011,2.264368 -0.27845,4.336841 -0.35188,4.605495 -0.12866,0.470825 -0.32652,4.313252 -0.49228,9.55989 -0.0437,1.381648 -0.13758,2.731895 -0.20874,3.000549 -0.10381,0.391879 -0.29883,5.201576 -0.59421,14.653846 -0.0107,0.34541 0.0542,1.60146 0.14436,2.79121 0.25342,3.34311 0.34281,8.2896 0.20678,11.44395 -0.0679,1.57355 -0.0852,3.0494 -0.0386,3.27967 0.0809,0.39958 0.12591,0.42319 0.98669,0.51737 1.73745,0.1901 3.14616,0.37515 4.46072,0.58599 0.7292,0.11696 1.36409,0.21486 1.41086,0.21756 0.2502,0.0144 1.28867,1.00372 1.68801,1.60805 l 0.45992,0.69601 v 4.74977 4.74977 l -0.5225,0.78704 c -0.44205,0.66583 -0.68055,0.86514 -1.54872,1.2941 -1.08948,0.53832 -2.17805,1.49536 -2.87429,2.52699 -0.61133,0.90582 -1.21483,2.51442 -1.33255,3.55187 -0.0565,0.49808 -0.19385,1.1254 -0.30516,1.39406 -0.11131,0.26865 -0.26515,1.02228 -0.34187,1.67472 -0.0767,0.65245 -0.25361,1.53168 -0.39311,1.95385 -0.13949,0.42217 -0.29796,1.23745 -0.35216,1.81173 -0.0542,0.57428 -0.19129,1.2651 -0.30468,1.53516 -0.1134,0.27007 -0.26894,1.02484 -0.34565,1.67728 -0.0767,0.65245 -0.25361,1.53168 -0.39312,1.95385 -0.13949,0.42217 -0.2978,1.23584 -0.3518,1.80814 -0.054,0.57231 -0.18701,1.21238 -0.2956,1.42236 -0.10858,0.20999 -0.28587,0.99778 -0.39396,1.75065 -0.10808,0.75286 -0.28979,1.58866 -0.40381,1.85731 -0.11402,0.26865 -0.25304,0.83387 -0.30893,1.25605 -0.0559,0.42217 -0.18847,0.93714 -0.29459,1.14439 -0.10612,0.20725 -0.26201,0.70967 -0.34642,1.11648 -0.0844,0.40682 -0.24169,0.87919 -0.34954,1.04972 -0.10785,0.17054 -0.26614,0.63669 -0.35175,1.0359 -0.0856,0.3992 -0.30515,1.00696 -0.48784,1.35057 -0.18269,0.3436 -0.33217,0.73329 -0.33217,0.86597 0,0.13268 -0.0938,0.31905 -0.20834,0.41415 -0.11459,0.0951 -0.27629,0.42524 -0.35932,0.73364 -0.13421,0.49837 -0.28944,0.80365 -0.94025,1.84907 -0.0956,0.15351 -0.30064,0.53032 -0.45569,0.83736 -0.15507,0.30703 -0.62549,1.02926 -1.04537,1.60494 -0.41989,0.57569 -0.87003,1.20371 -1.0003,1.39561 -0.24706,0.36393 -2.94454,3.04318 -3.62439,3.5999 -0.81823,0.67006 -1.4806,1.14515 -1.59652,1.14515 -0.0662,0 -0.23221,0.10991 -0.36891,0.24423 -0.13669,0.13433 -0.4664,0.3564 -0.7327,0.49347 -0.26628,0.13709 -0.94892,0.49821 -1.51699,0.80248 -0.56807,0.30428 -1.14052,0.55323 -1.27211,0.55323 -0.1316,0 -0.38905,0.11562 -0.5721,0.25696 -0.18306,0.14132 -0.63698,0.3321 -1.0087,0.42394 -0.37173,0.0919 -0.81135,0.25429 -0.97692,0.36097 -0.16559,0.1067 -0.70661,0.26645 -1.20227,0.35503 -0.49568,0.0886 -1.06799,0.24729 -1.27183,0.3527 -0.20383,0.10541 -0.92872,0.25817 -1.61086,0.33948 -0.68216,0.0813 -1.46009,0.24165 -1.72874,0.35628 -0.74813,0.31925 -5.86055,0.66432 -9.83901,0.66413 -5.03732,0 -10.54852,-0.35132 -11.6533,-0.74232 -0.19189,-0.0679 -1.22732,-0.19408 -2.30094,-0.28035 -1.07363,-0.0863 -2.17073,-0.24825 -2.43801,-0.35993 -0.26728,-0.11167 -0.95566,-0.26837 -1.52974,-0.34822 -0.57407,-0.0799 -1.26683,-0.25818 -1.53946,-0.39629 -0.27263,-0.13812 -0.77068,-0.29694 -1.10679,-0.35294 -0.33609,-0.056 -0.8071,-0.21443 -1.0467,-0.35209 -0.23958,-0.13767 -0.65542,-0.29597 -0.92407,-0.35179 -0.26866,-0.0558 -0.63272,-0.21458 -0.80903,-0.35278 -0.17631,-0.13821 -0.50168,-0.29107 -0.72305,-0.33968 -0.22136,-0.0486 -0.47465,-0.17536 -0.56285,-0.28163 -0.0882,-0.10628 -0.39085,-0.2676 -0.67255,-0.35846 -0.28171,-0.0909 -0.61595,-0.2668 -0.74276,-0.39094 -0.12681,-0.12413 -0.55674,-0.4141 -0.9554,-0.64438 -2.31938,-1.33974 -5.54703,-4.31271 -7.79074,-7.17597 -0.20561,-0.2624 -0.5013,-0.60782 -0.65709,-0.76759 -0.15578,-0.15978 -0.35983,-0.44751 -0.45344,-0.63941 -0.0936,-0.19189 -0.3887,-0.63151 -0.65574,-0.97692 -0.26704,-0.34541 -0.58129,-0.81643 -0.69834,-1.0467 -0.11705,-0.23028 -0.40038,-0.70129 -0.62962,-1.04671 -0.22924,-0.34541 -0.53787,-0.888 -0.68583,-1.20577 -0.14797,-0.31777 -0.33245,-0.61695 -0.40996,-0.66487 -0.0775,-0.0479 -0.21745,-0.32172 -0.31097,-0.60849 -0.0935,-0.28679 -0.28217,-0.66566 -0.41921,-0.84199 -0.13705,-0.1763 -0.28896,-0.50167 -0.33758,-0.72304 -0.0486,-0.22136 -0.17811,-0.47694 -0.28777,-0.56795 -0.10965,-0.091 -0.26846,-0.42505 -0.35291,-0.74233 -0.0845,-0.31728 -0.23397,-0.67108 -0.33226,-0.78621 -0.0983,-0.11514 -0.25782,-0.45545 -0.3545,-0.75623 -0.0967,-0.30078 -0.28659,-0.74039 -0.422,-0.97692 -0.13541,-0.23653 -0.29148,-0.58705 -0.34682,-0.77894 -0.0553,-0.1919 -0.18155,-0.44311 -0.28047,-0.55824 -0.0989,-0.11514 -0.25455,-0.48975 -0.34584,-0.83245 -0.0913,-0.34271 -0.28555,-0.7751 -0.43167,-0.96086 -0.14612,-0.18576 -0.26567,-0.46431 -0.26567,-0.61898 0,-0.15469 -0.157,-0.61724 -0.3489,-1.02789 -0.84654,-1.81158 -1.02137,-2.24218 -1.10488,-2.72135 -0.0488,-0.28014 -0.17579,-0.58155 -0.28215,-0.66982 -0.10637,-0.0883 -0.26723,-0.46829 -0.35747,-0.84448 -0.0903,-0.37618 -0.24932,-0.75471 -0.3535,-0.84117 -0.10417,-0.0865 -0.25989,-0.4967 -0.34603,-0.91162 -0.0861,-0.41495 -0.21329,-0.78946 -0.28255,-0.83226 -0.0693,-0.0428 -0.25535,-0.5124 -0.41353,-1.04352 -0.15818,-0.53113 -0.34218,-0.99942 -0.40889,-1.04066 -0.0667,-0.0412 -0.19593,-0.38605 -0.28715,-0.76629 -0.0912,-0.38021 -0.25453,-0.76491 -0.36292,-0.85487 -0.1084,-0.09 -0.19708,-0.23508 -0.19708,-0.32247 0,-0.18964 -0.93255,-2.07406 -1.32026,-2.66791 -0.77412,-1.18568 -2.41112,-2.57312 -3.48152,-2.95078 -0.30096,-0.10619 -0.64078,-0.27072 -0.75515,-0.36565 -0.29348,-0.24356 -5.0608,-0.24356 -5.35428,0 -0.11437,0.0949 -0.45507,0.25978 -0.75712,0.36635 -1.36257,0.48074 -3.04626,2.06175 -3.98442,3.74146 -0.12723,0.22779 -0.32644,0.51972 -0.4427,0.64875 -0.11626,0.12903 -0.25383,0.40472 -0.30572,0.61267 -0.0519,0.20793 -0.18194,0.45075 -0.289,0.53961 -0.10705,0.0888 -0.26374,0.42113 -0.34819,0.73841 -0.0845,0.31728 -0.23396,0.67108 -0.33226,0.78621 -0.0983,0.11514 -0.25839,0.46055 -0.35577,0.76759 -0.0974,0.30703 -0.26389,0.68384 -0.37001,0.83736 -0.10612,0.15352 -0.26003,0.53033 -0.34202,0.83736 -0.082,0.30704 -0.22951,0.65245 -0.3278,0.76758 -0.0983,0.11514 -0.25898,0.46055 -0.35708,0.76759 -0.0981,0.30703 -0.25605,0.68384 -0.35099,0.83736 -0.0949,0.15352 -0.25136,0.53033 -0.3476,0.83736 -0.0962,0.30704 -0.2618,0.68385 -0.36791,0.83737 -0.10612,0.15351 -0.26003,0.53032 -0.34203,0.83736 -0.082,0.30703 -0.2316,0.65244 -0.33246,0.76758 -0.10085,0.11514 -0.25786,0.49195 -0.3489,0.83736 -0.091,0.34542 -0.24804,0.72223 -0.3489,0.83737 -0.10086,0.11513 -0.25373,0.47359 -0.33971,0.79658 -0.086,0.32298 -0.21263,0.62202 -0.28143,0.66454 -0.0688,0.0425 -0.23218,0.40629 -0.36304,0.80838 -0.13087,0.40207 -0.31709,0.82525 -0.41382,0.94039 -0.0967,0.11513 -0.21861,0.4105 -0.27084,0.65635 -0.0522,0.24586 -0.21017,0.59349 -0.35099,0.77249 -0.14081,0.17902 -0.32532,0.58286 -0.41003,0.89745 -0.0847,0.31458 -0.2416,0.64465 -0.34866,0.7335 -0.10705,0.0889 -0.2357,0.32512 -0.28588,0.52504 -0.10199,0.40637 -0.86692,1.98017 -1.47965,3.04429 -0.22099,0.38379 -0.50746,0.93331 -0.63658,1.22115 -0.12914,0.28784 -0.28645,0.52335 -0.34959,0.52335 -0.0631,0 -0.21934,0.20411 -0.3471,0.45357 -0.12776,0.24947 -0.50619,0.81539 -0.84095,1.25761 -0.33476,0.44221 -0.60865,0.84322 -0.60865,0.89114 0,0.0479 -0.14131,0.22974 -0.31401,0.40407 -0.17271,0.17432 -0.47102,0.52174 -0.66292,0.77206 -0.84559,1.10296 -3.10261,3.39882 -4.40094,4.47666 -0.30967,0.25709 -0.67676,0.56162 -0.81576,0.67676 -0.139,0.11514 -0.40514,0.34918 -0.59143,0.52009 -0.18628,0.17092 -0.47466,0.38352 -0.64083,0.47245 -0.16618,0.0889 -0.3689,0.21519 -0.45049,0.28057 -0.62367,0.49973 -1.49912,1.09942 -1.60497,1.09942 -0.0706,0 -0.21531,0.0869 -0.32155,0.19316 -0.18452,0.18453 -0.75797,0.52428 -1.91175,1.13266 -0.29114,0.15352 -0.61624,0.34851 -0.72246,0.43332 -0.10621,0.0848 -0.40884,0.2269 -0.67251,0.31576 -0.26367,0.0889 -0.57768,0.24913 -0.69781,0.35617 -0.12012,0.10703 -0.47799,0.2637 -0.79527,0.34815 -0.31728,0.0845 -0.64923,0.24074 -0.73767,0.34729 -0.0884,0.10656 -0.39406,0.23635 -0.67917,0.28845 -0.28511,0.0521 -0.66945,0.1921 -0.8541,0.31116 -0.18464,0.11905 -0.70447,0.30247 -1.15516,0.40762 -0.45069,0.10514 -0.95904,0.28081 -1.12966,0.39036 -0.17063,0.10956 -0.62424,0.24158 -1.00803,0.29337 -0.38379,0.0518 -0.93445,0.21328 -1.22368,0.35885 -0.28924,0.14558 -0.88586,0.30246 -1.32583,0.34862 -0.43997,0.0462 -1.26777,0.21038 -1.83955,0.36491 -0.97943,0.26472 -3.22551,0.53925 -6.56643,0.8026 -2.94865,0.23243 -3.8537,0.26172 -4.6055,0.14907 z m 115.83517,-3.19559 c 2.31641,-0.0853 3.6668,-0.19557 4.18681,-0.34199 0.42217,-0.11888 1.4146,-0.28298 2.20539,-0.36465 0.79081,-0.0817 1.60724,-0.23446 1.81429,-0.33953 0.20706,-0.10508 0.78102,-0.26097 1.27545,-0.34643 0.92117,-0.15923 1.91423,-0.50136 3.15029,-1.08534 0.38488,-0.18184 0.80509,-0.33063 0.93378,-0.33063 0.12871,0 0.27488,-0.0661 0.32484,-0.147 0.05,-0.0808 0.41479,-0.30086 0.81071,-0.48893 0.79589,-0.37806 1.45885,-0.77256 2.27398,-1.3531 0.29661,-0.21125 0.7591,-0.53383 1.02776,-0.71687 0.26865,-0.18301 1.07665,-0.9522 1.79554,-1.7093 1.84874,-1.94701 1.83303,-1.92906 1.83303,-2.09253 0,-0.0814 0.13427,-0.26755 0.29838,-0.41377 0.16411,-0.14623 0.3888,-0.45427 0.49929,-0.68454 0.1105,-0.23028 0.38083,-0.7327 0.60074,-1.11649 0.2199,-0.38379 0.47184,-0.8548 0.55987,-1.0467 0.088,-0.1919 0.3036,-0.63151 0.47904,-0.97692 0.17544,-0.34542 0.36282,-0.87272 0.41637,-1.17178 0.0536,-0.29906 0.18247,-0.67588 0.28647,-0.83736 0.104,-0.16149 0.25915,-0.70182 0.34479,-1.20075 0.0856,-0.49893 0.24652,-1.14229 0.35754,-1.42969 0.11102,-0.2874 0.26495,-1.07961 0.34209,-1.76048 0.0771,-0.68088 0.23253,-1.45886 0.34534,-1.72885 0.11282,-0.27001 0.27685,-1.36185 0.3645,-2.42633 0.0877,-1.06448 0.24973,-2.15393 0.36015,-2.42101 0.13681,-0.33086 0.24573,-1.50923 0.34184,-3.69835 0.0787,-1.79334 0.23011,-3.58666 0.34264,-4.05905 0.28277,-1.187 0.28597,-7.63126 0.004,-8.71917 -0.1085,-0.41912 -0.23778,-1.35864 -0.2873,-2.08784 -0.0548,-0.80658 -0.2192,-1.70843 -0.41989,-2.30275 -0.18143,-0.53731 -0.36783,-1.20612 -0.4142,-1.48625 -0.0464,-0.28013 -0.17521,-0.58475 -0.28628,-0.67694 -0.11108,-0.0922 -0.24132,-0.37744 -0.28944,-0.63391 -0.0481,-0.25647 -0.23818,-0.67058 -0.42238,-0.92024 -0.18419,-0.24965 -0.33489,-0.52675 -0.33489,-0.61577 0,-0.089 -0.1413,-0.32279 -0.31401,-0.51949 -0.1727,-0.1967 -0.50241,-0.61928 -0.73269,-0.93905 -0.39998,-0.55544 -1.6003,-1.73687 -2.3152,-2.27877 -1.38944,-1.05323 -2.42997,-1.76859 -2.57247,-1.76859 -0.0927,0 -0.32336,-0.12171 -0.51248,-0.27047 -0.18911,-0.14876 -0.52729,-0.31383 -0.75151,-0.36683 -0.22421,-0.053 -0.59607,-0.20862 -0.82635,-0.34583 -0.23027,-0.13721 -0.66989,-0.29408 -0.97692,-0.34859 -0.30703,-0.0545 -0.82219,-0.21701 -1.14479,-0.36111 -0.3226,-0.1441 -1.06102,-0.32799 -1.64093,-0.40865 -0.57992,-0.0807 -1.26839,-0.23606 -1.52994,-0.34535 -0.26155,-0.10928 -1.21879,-0.26732 -2.1272,-0.3512 -0.9084,-0.0839 -1.93426,-0.23821 -2.27967,-0.34295 -0.34541,-0.10475 -1.75846,-0.26543 -3.14011,-0.35708 -1.38165,-0.0917 -2.61175,-0.21804 -2.73355,-0.28087 -0.3649,-0.1882 -6.41226,-0.54744 -9.21546,-0.54744 -3.20078,0 -6.60883,0.22027 -7.72426,0.49923 -0.45794,0.11453 -1.71748,0.29718 -2.79897,0.40588 -1.0815,0.10871 -2.14288,0.26477 -2.35864,0.3468 -0.21575,0.082 -0.99729,0.21125 -1.73675,0.28716 -0.73945,0.0759 -1.81547,0.25661 -2.39116,0.40154 -0.57569,0.14494 -1.42352,0.30507 -1.88406,0.35585 -0.46055,0.0508 -1.18278,0.20682 -1.60495,0.34676 -0.42217,0.13994 -1.14433,0.29976 -1.6048,0.35516 -0.46047,0.0554 -1.01155,0.19086 -1.22463,0.30105 -0.21307,0.11019 -0.74696,0.26553 -1.18641,0.34522 -0.43945,0.0797 -0.93852,0.23455 -1.10905,0.34415 -0.17053,0.10959 -0.62174,0.2661 -1.0027,0.3478 -0.38095,0.0817 -0.76724,0.23843 -0.85841,0.34828 -0.0912,0.10985 -0.23437,0.19973 -0.31822,0.19973 -0.0839,0 -0.65708,0.25433 -1.27384,0.56517 -1.01965,0.5139 -1.46084,0.77576 -2.67409,1.58718 -0.56239,0.37612 -3.12258,3.01537 -3.12258,3.21901 0,0.0923 -0.1099,0.26869 -0.24423,0.39201 -0.13432,0.12332 -0.45676,0.65117 -0.71652,1.173 -0.25977,0.52184 -0.58948,1.18104 -0.7327,1.46491 -0.14321,0.28386 -0.26046,0.62927 -0.26054,0.76758 -8e-5,0.13831 -0.1638,0.91089 -0.36381,1.71685 -0.34562,1.39268 -0.36086,1.60841 -0.30721,4.34784 0.0378,1.93007 0.11079,2.94791 0.22089,3.08058 0.0904,0.10897 0.23128,0.82153 0.31297,1.58348 0.0817,0.76196 0.26764,1.79357 0.41321,2.2925 0.14558,0.49893 0.3054,1.29257 0.35516,1.76363 0.0498,0.47107 0.18012,1.02927 0.28968,1.24044 0.10956,0.21117 0.26825,0.83058 0.35265,1.37647 0.0844,0.5459 0.26378,1.21235 0.39862,1.481 0.13484,0.26865 0.29079,0.80099 0.34657,1.18298 0.0558,0.38199 0.21254,0.91581 0.34837,1.18627 0.13583,0.27045 0.29202,0.73961 0.34708,1.04256 0.0551,0.30295 0.22057,0.70394 0.36778,0.89107 0.1472,0.18714 0.26764,0.47944 0.26764,0.64955 0,0.17011 0.14654,0.58555 0.32565,0.92322 0.17911,0.33765 0.37141,0.79736 0.42733,1.02158 0.0559,0.22422 0.2234,0.5624 0.37215,0.7515 0.14876,0.18912 0.27047,0.45222 0.27047,0.58468 0,0.13246 0.15701,0.47219 0.3489,0.75497 0.1919,0.28276 0.35005,0.58983 0.35145,0.68238 0.001,0.0925 0.1741,0.42557 0.38379,0.74007 0.20969,0.3145 0.53825,0.83771 0.73015,1.16269 0.19189,0.32498 0.49021,0.76756 0.66291,0.9835 0.17271,0.21594 0.31401,0.45342 0.31401,0.52773 0,0.0743 0.18625,0.37926 0.41388,0.67765 0.22763,0.2984 0.52594,0.69179 0.66291,0.8742 0.13697,0.1824 0.42174,0.52144 0.63283,0.75338 0.21108,0.23197 0.38379,0.46714 0.38379,0.52262 0,0.34533 4.88494,4.93416 6.28022,5.89952 0.19189,0.13278 0.59471,0.41344 0.89515,0.62371 0.79783,0.55837 1.46896,0.96339 2.14029,1.29162 0.32622,0.1595 0.59313,0.34499 0.59313,0.41221 0,0.0672 0.23551,0.19782 0.52335,0.29024 0.28785,0.0924 0.62067,0.25263 0.73962,0.35605 0.11896,0.10341 0.48229,0.28188 0.80744,0.39659 0.32513,0.11471 0.7285,0.30478 0.89637,0.42236 0.16787,0.11758 0.40356,0.21378 0.52378,0.21378 0.1202,0 0.46735,0.12837 0.77142,0.28526 0.30407,0.1569 0.86687,0.35154 1.25066,0.43256 0.38379,0.081 0.84056,0.23765 1.01505,0.3481 0.17448,0.11044 0.67689,0.26466 1.11648,0.34273 0.43958,0.0781 1.11325,0.2588 1.49704,0.40164 0.38379,0.14284 1.23162,0.32593 1.88406,0.40687 0.65245,0.0809 1.59448,0.2419 2.09341,0.35769 0.56941,0.13215 1.68653,0.21676 3.00055,0.22726 1.15137,0.009 2.43882,0.0676 2.86099,0.1298 0.42217,0.0622 1.1758,0.0882 1.67473,0.0578 0.49892,-0.0304 2.44579,-0.11194 4.32637,-0.18115 z m -107.90207,-0.27348 c 0.17988,-0.1025 0.94939,-0.27368 1.71003,-0.38042 0.76063,-0.10675 1.55549,-0.28166 1.76635,-0.3887 0.21086,-0.10703 0.78442,-0.26392 1.27458,-0.34864 0.49016,-0.0847 1.0305,-0.24529 1.20075,-0.35684 0.17025,-0.11155 0.55424,-0.24574 0.8533,-0.2982 0.29907,-0.0525 0.74606,-0.21084 0.99331,-0.35197 0.24726,-0.14114 0.66893,-0.29776 0.93706,-0.34806 0.26813,-0.0503 0.55781,-0.17617 0.64373,-0.27969 0.0859,-0.10353 0.48816,-0.28474 0.89386,-0.40268 0.4057,-0.11794 0.81634,-0.30928 0.91254,-0.42518 0.0962,-0.11592 0.23204,-0.21075 0.30186,-0.21075 0.17628,0 0.91799,-0.35569 1.58338,-0.75931 0.30703,-0.18624 0.8026,-0.4742 1.10126,-0.6399 0.29866,-0.16568 0.61267,-0.35849 0.6978,-0.42842 0.29764,-0.24454 1.61414,-1.10314 1.69144,-1.10314 0.13207,0 3.22344,-2.47251 3.92607,-3.14011 1.5297,-1.45344 2.89113,-2.8202 3.46914,-3.48273 0.3838,-0.43991 0.82341,-0.94287 0.97693,-1.1177 0.55849,-0.63598 0.80931,-0.96697 1.07865,-1.42349 0.15111,-0.25611 0.32711,-0.46564 0.39111,-0.46564 0.064,0 0.15402,-0.1186 0.20002,-0.26356 0.046,-0.14496 0.22295,-0.42107 0.3932,-0.61358 0.17025,-0.19251 0.49795,-0.67578 0.72823,-1.07393 0.23027,-0.39817 0.4899,-0.80112 0.57696,-0.89545 0.15629,-0.16938 0.57374,-0.89856 1.07735,-1.88186 0.14229,-0.27782 0.33846,-0.59934 0.43593,-0.71448 0.0975,-0.11514 0.25117,-0.43982 0.34156,-0.72153 0.0904,-0.2817 0.2513,-0.58435 0.35757,-0.67255 0.10628,-0.0882 0.23484,-0.36014 0.28568,-0.6043 0.0508,-0.24416 0.1855,-0.59066 0.29923,-0.77001 0.19334,-0.30491 0.35554,-0.72218 0.95821,-2.46513 0.1327,-0.38379 0.35312,-0.95568 0.48981,-1.27088 0.13669,-0.31518 0.29329,-0.8804 0.348,-1.25604 0.0547,-0.37563 0.18718,-0.85578 0.29439,-1.06701 0.10721,-0.21122 0.28869,-1.01107 0.40328,-1.77747 0.11459,-0.76638 0.27279,-1.56292 0.35155,-1.77009 0.4118,-1.0831 0.51736,-9.28654 0.13708,-10.65246 -0.0748,-0.26866 -0.23538,-0.86528 -0.35685,-1.32583 -0.12147,-0.46055 -0.34356,-1.06572 -0.49354,-1.34482 -0.14998,-0.27911 -0.2727,-0.58497 -0.2727,-0.6797 0,-0.46486 -1.68503,-2.71599 -2.87211,-3.83702 -0.78209,-0.73857 -2.13073,-1.79809 -3.05921,-2.4034 -0.7739,-0.50453 -3.69131,-1.99275 -3.90646,-1.99275 -0.097,0 -0.25122,-0.0902 -0.34268,-0.20037 -0.0915,-0.1102 -0.36069,-0.24307 -0.59829,-0.29525 -0.23759,-0.0522 -0.71362,-0.24463 -1.05784,-0.42765 -0.34422,-0.18303 -0.72734,-0.33277 -0.85137,-0.33277 -0.12403,0 -0.44439,-0.11716 -0.71191,-0.26035 -0.26751,-0.1432 -0.82752,-0.33339 -1.24446,-0.42265 -0.41693,-0.0893 -0.83391,-0.22525 -0.92661,-0.30219 -0.0927,-0.0769 -0.62305,-0.23465 -1.17854,-0.35047 -0.55549,-0.11583 -1.17482,-0.29583 -1.37628,-0.40001 -0.20146,-0.10418 -0.74303,-0.23211 -1.2035,-0.28431 -0.46047,-0.0522 -1.21403,-0.21497 -1.67459,-0.36175 -1.07712,-0.34326 -5.84932,-0.97481 -9.35055,-1.23745 -4.7968,-0.35981 -8.51476,-0.46316 -11.1039,-0.30865 -1.41516,0.0845 -4.39428,0.24944 -6.62027,0.36664 -2.74585,0.14456 -4.451142,0.29965 -5.303302,0.4823 -0.69082,0.14807 -1.67018,0.30873 -2.17635,0.35701 -0.50617,0.0483 -1.10279,0.18335 -1.32583,0.30014 -0.22303,0.11679 -0.7761,0.27274 -1.22905,0.34656 -0.45294,0.0738 -0.97953,0.25692 -1.17019,0.40689 -0.19066,0.14998 -0.47291,0.27268 -0.62721,0.27268 -0.47239,0 -2.941,1.30386 -4.45546,2.35327 -1.00472,0.6962 -2.90935,2.50571 -3.39888,3.22915 -0.1818,0.26865 -0.52066,0.75677 -0.75303,1.0847 -0.23237,0.32794 -0.54931,0.83035 -0.70432,1.11649 -0.15501,0.28613 -0.3337,0.61444 -0.3971,0.72958 -0.50434,0.91594 -1.16617,2.6094 -1.44538,3.69835 -0.0787,0.30703 -0.26779,0.95797 -0.42014,1.44653 -0.15236,0.48856 -0.33695,1.5876 -0.41021,2.44231 -0.0733,0.85471 -0.23697,1.80523 -0.3638,2.11226 -0.19758,0.47832 -0.23826,1.34585 -0.28418,6.05978 -0.0517,5.30731 0.04,7.16666 0.39549,8.01594 0.0688,0.16445 0.18917,0.97668 0.26742,1.80496 0.0783,0.82829 0.21242,1.637 0.29813,1.79716 0.0857,0.16015 0.24226,0.78623 0.34789,1.39128 0.10563,0.60505 0.27991,1.27219 0.3873,1.48252 0.10738,0.21033 0.26821,0.72701 0.35739,1.14819 0.0892,0.42117 0.24926,0.8987 0.35573,1.06119 0.10646,0.16248 0.23655,0.54012 0.28909,0.83918 0.0525,0.29906 0.23662,0.79496 0.40907,1.102 0.17244,0.30703 0.35773,0.74169 0.41174,0.96591 0.054,0.22422 0.21991,0.5624 0.36866,0.7515 0.14876,0.18912 0.27047,0.44191 0.27047,0.56176 0,0.11986 0.16789,0.4725 0.37308,0.78365 0.91849,1.39281 1.02253,1.56581 1.02253,1.70029 0,0.0785 0.157,0.29013 0.3489,0.4704 0.1919,0.18027 0.3489,0.41051 0.3489,0.5116 0,0.10112 0.12561,0.26228 0.27912,0.35816 0.15352,0.0959 0.27912,0.22941 0.27912,0.29676 0,0.30505 2.91933,3.34104 3.97782,4.13678 0.35736,0.26865 0.75294,0.59837 0.87907,0.73269 0.12613,0.13433 0.30475,0.24423 0.39694,0.24423 0.0922,0 0.34514,0.14818 0.56211,0.32927 0.21698,0.18109 0.58291,0.4331 0.81318,0.56001 0.43183,0.23801 0.60987,0.34335 1.49729,0.88596 0.28619,0.175 0.59608,0.31817 0.68863,0.31817 0.0926,0 0.4236,0.12147 0.73568,0.26994 0.68141,0.32418 2.03119,0.81142 2.80038,1.01088 0.30703,0.0796 1.06066,0.29077 1.67473,0.46923 0.614062,0.17847 1.650302,0.39407 2.302742,0.47912 0.65245,0.0851 1.62588,0.24249 2.16319,0.34984 1.37609,0.27496 13.79043,0.23678 14.2831,-0.0439 z m 54.8691,-57.99016 c 1.49679,-0.12182 3.09824,-0.29016 3.55879,-0.37409 0.46055,-0.0839 1.27698,-0.21717 1.81429,-0.29609 0.53731,-0.0789 1.41654,-0.2353 1.95384,-0.34751 0.53731,-0.11221 1.62647,-0.32334 2.42035,-0.46916 0.79388,-0.14583 1.51956,-0.32833 1.61263,-0.40557 0.0931,-0.0772 0.63677,-0.21172 1.20823,-0.29885 0.57146,-0.0871 1.22742,-0.24573 1.4577,-0.35247 0.23027,-0.10673 0.94076,-0.28473 1.57886,-0.39555 0.63811,-0.11081 1.23943,-0.26723 1.33627,-0.34761 0.0968,-0.0804 0.8308,-0.24074 1.63102,-0.35638 0.80022,-0.11563 1.70615,-0.29918 2.01319,-0.40788 0.30703,-0.10869 1.06066,-0.24314 1.67472,-0.29877 0.61407,-0.0556 1.28238,-0.18563 1.48514,-0.28888 0.20276,-0.10326 1.11339,-0.25786 2.02363,-0.34355 0.91023,-0.0857 1.93527,-0.24536 2.27786,-0.35481 0.34259,-0.10946 1.80405,-0.29452 3.24771,-0.41125 1.44364,-0.11673 2.77603,-0.26973 2.96087,-0.34001 1.69129,-0.64303 26.47312,-0.63279 27.8964,0.0115 0.33951,0.15369 5.08262,0.53375 5.37446,0.43064 0.10343,-0.0365 0.31346,-0.35568 0.46677,-0.7092 0.2638,-0.60835 0.28226,-1.03507 0.34493,-7.96969 0.0629,-6.96234 0.003,-8.97484 -0.35858,-12.14175 -0.0746,-0.65245 -0.20758,-2.03244 -0.29552,-3.06666 -0.088,-1.03421 -0.21567,-1.98461 -0.28385,-2.11199 -0.0682,-0.12738 -0.21812,-0.99231 -0.33323,-1.92207 -0.11511,-0.92976 -0.29875,-1.863496 -0.40811,-2.074968 -0.10936,-0.211472 -0.24264,-0.761242 -0.29618,-1.221712 -0.0535,-0.46047 -0.20766,-1.057026 -0.34249,-1.325679 -0.13483,-0.268654 -0.29076,-0.802473 -0.34649,-1.186264 -0.0557,-0.383791 -0.21284,-0.889804 -0.34911,-1.124473 -0.13628,-0.23467 -0.29371,-0.674285 -0.34985,-0.976924 -0.0562,-0.302638 -0.21667,-0.738658 -0.35672,-0.968933 -0.14005,-0.230275 -0.32561,-0.68559 -0.41234,-1.011813 -0.0867,-0.326223 -0.21304,-0.593132 -0.28067,-0.593132 -0.0676,0 -0.22726,-0.314011 -0.35474,-0.697802 -0.12747,-0.383791 -0.28,-0.697802 -0.33895,-0.697802 -0.0589,0 -0.21022,-0.235508 -0.33616,-0.523352 -0.12594,-0.287843 -0.40238,-0.781862 -0.6143,-1.09782 -0.21192,-0.315958 -0.56846,-0.849777 -0.7923,-1.186264 -0.51216,-0.769888 -2.7382,-2.995988 -3.57049,-3.570571 -0.95543,-0.659603 -3.62741,-1.951089 -4.25659,-2.057399 -0.30703,-0.05188 -0.94756,-0.223602 -1.42339,-0.381608 -0.78919,-0.262063 -1.10776,-0.281526 -3.62857,-0.221688 -2.06481,0.04901 -2.88691,0.119818 -3.25189,0.280073 -0.26865,0.11796 -0.83387,0.259765 -1.25604,0.315122 -0.42217,0.05536 -1.01879,0.212346 -1.32582,0.34887 -0.30704,0.136522 -0.84086,0.293246 -1.18627,0.348275 -0.34541,0.05503 -0.81643,0.212374 -1.0467,0.349658 -0.23028,0.137285 -0.70129,0.29429 -1.0467,0.348902 -0.34542,0.05461 -0.81643,0.211616 -1.04671,0.348901 -0.23027,0.137284 -0.70129,0.294289 -1.0467,0.348901 -0.34541,0.05461 -0.81643,0.211617 -1.0467,0.348901 -0.23028,0.137284 -0.70129,0.29429 -1.04671,0.348901 -0.34541,0.05461 -0.81643,0.211617 -1.0467,0.348901 -0.23028,0.137284 -0.70129,0.29429 -1.0467,0.348901 -0.34542,0.05461 -0.81643,0.211617 -1.04671,0.348901 -0.23027,0.137284 -0.70129,0.29429 -1.0467,0.348901 -0.34541,0.05461 -0.81643,0.211617 -1.0467,0.348901 -0.23028,0.137285 -0.70129,0.29429 -1.04671,0.348902 -0.34541,0.05461 -0.81643,0.210857 -1.0467,0.347213 -0.23027,0.136356 -0.73122,0.292703 -1.11321,0.347436 -0.38199,0.05473 -0.91581,0.211402 -1.18626,0.348152 -0.27046,0.136748 -0.82459,0.319183 -1.23141,0.40541 -0.40681,0.08623 -0.90923,0.242237 -1.11648,0.346687 -0.20725,0.104449 -0.64949,0.231708 -0.98276,0.282795 -0.33326,0.05109 -0.83568,0.208192 -1.11648,0.349119 -0.2808,0.140927 -0.85008,0.299734 -1.26506,0.352905 -0.41498,0.05317 -0.92854,0.186665 -1.14123,0.296652 -0.21269,0.109988 -1.0307,0.296704 -1.8178,0.414925 -0.7871,0.11822 -1.5089,0.279523 -1.604,0.358448 -0.23616,0.195989 -4.51592,0.674246 -7.24056,0.80912 -3.39401,0.168008 -9.7925,-0.299005 -12.00453,-0.876188 -0.46055,-0.12017 -1.30352,-0.283819 -1.87328,-0.363663 -0.56975,-0.07984 -1.10973,-0.206431 -1.19995,-0.281306 -0.0902,-0.07487 -0.71961,-0.233021 -1.39866,-0.351437 -0.67904,-0.118416 -1.30949,-0.277438 -1.401,-0.353382 -0.0915,-0.07595 -0.59741,-0.227935 -1.12422,-0.337756 -0.90421,-0.188496 -1.97119,-0.501521 -3.40014,-0.997514 -0.34542,-0.119894 -0.97921,-0.298045 -1.40843,-0.395893 -0.42922,-0.09785 -0.93163,-0.276889 -1.11648,-0.39787 -0.18484,-0.120982 -0.61869,-0.262541 -0.9641,-0.314577 -0.34542,-0.05204 -0.81643,-0.203777 -1.04671,-0.337201 -0.23027,-0.133422 -0.72694,-0.31724 -1.10371,-0.408482 -0.37677,-0.09124 -0.81466,-0.256686 -0.97309,-0.367657 -0.15843,-0.110963 -0.4178,-0.201755 -0.57639,-0.201755 -0.15859,0 -0.53713,-0.128816 -0.8412,-0.286258 -0.30407,-0.157442 -0.86687,-0.37261 -1.25066,-0.478151 -0.38379,-0.105541 -0.94659,-0.322136 -1.25067,-0.481324 -0.30407,-0.159187 -0.68088,-0.289846 -0.83736,-0.290352 -0.15647,-5.05e-4 -0.47291,-0.125696 -0.70318,-0.278201 -0.23028,-0.152504 -0.54429,-0.277932 -0.6978,-0.278726 -0.15352,-8.37e-4 -0.65594,-0.189379 -1.11649,-0.419076 -0.46055,-0.229697 -0.95052,-0.417868 -1.08883,-0.418157 -0.13831,-2.79e-4 -0.48372,-0.119784 -0.76758,-0.265547 -0.73793,-0.378926 -1.94515,-0.85541 -2.70239,-1.066627 -0.35811,-0.09989 -0.79772,-0.276098 -0.97692,-0.391581 -0.1792,-0.115482 -0.57702,-0.253655 -0.88406,-0.307054 -0.30703,-0.0534 -0.74665,-0.208409 -0.97692,-0.344469 -0.23028,-0.13606 -0.70129,-0.291459 -1.0467,-0.34533 -0.34542,-0.05387 -0.76802,-0.186703 -0.93912,-0.295182 -0.1711,-0.108479 -0.75616,-0.29086 -1.30014,-0.405288 -0.54398,-0.11443 -1.11693,-0.276493 -1.27323,-0.360141 -0.1563,-0.08365 -0.70061,-0.211063 -1.20957,-0.283142 -0.50897,-0.07208 -1.4464,-0.256999 -2.08319,-0.410937 -2.12673,-0.514117 -10.50839,-0.509637 -11.47211,0.0061 -0.16181,0.0866 -0.86907,0.250428 -1.57169,0.364068 -0.70262,0.11364 -1.35624,0.271971 -1.45248,0.351846 -0.0962,0.07988 -0.53966,0.231737 -0.98536,0.33747 -0.4457,0.105733 -1.05916,0.3208 -1.36323,0.477926 -0.30407,0.157131 -0.6575,0.285688 -0.78538,0.285688 -0.12789,0 -0.30804,0.09099 -0.40034,0.202202 -0.0923,0.111211 -0.3983,0.276157 -0.68,0.366546 -0.2817,0.09039 -0.60639,0.243034 -0.72153,0.33921 -0.11514,0.09618 -0.42915,0.285407 -0.6978,0.42051 -0.26865,0.135104 -0.51986,0.290921 -0.55824,0.346258 -0.0384,0.05534 -0.27723,0.20692 -0.53078,0.33685 -0.25354,0.129929 -0.57691,0.342799 -0.71859,0.473044 -0.14168,0.130245 -0.48765,0.393814 -0.76882,0.58571 -0.91144,0.622059 -2.49882,1.963463 -3.28511,2.776061 -1.62639,1.680807 -2.93077,3.237829 -2.93077,3.498431 0,0.07228 -0.0857,0.181641 -0.19043,0.243024 -0.10474,0.06138 -0.29582,0.300012 -0.42462,0.530286 -0.128802,0.230275 -0.389482,0.638489 -0.579292,0.907143 -0.41748,0.590902 -0.4896,0.699459 -1.10957,1.670019 -0.26801,0.419582 -0.4873,0.835027 -0.4873,0.923212 0,0.08818 -0.11647,0.310111 -0.25882,0.493168 -0.14236,0.183057 -0.33398,0.563316 -0.42582,0.84502 -0.0919,0.281703 -0.25799,0.587703 -0.3692,0.68 -0.11121,0.0923 -0.20244,0.270027 -0.20273,0.394955 -2.8e-4,0.124929 -0.18846,0.603956 -0.41815,1.064505 -0.2297,0.46055 -0.41787,0.963897 -0.41816,1.118551 -2.8e-4,0.154652 -0.12169,0.507246 -0.26977,0.783541 -0.14808,0.276295 -0.30994,0.74638 -0.35967,1.044636 -0.0497,0.298256 -0.20454,0.824895 -0.34401,1.170305 -0.13947,0.34541 -0.29563,0.97343 -0.34701,1.39561 -0.0514,0.42217 -0.21088,1.17579 -0.35445,1.67472 -0.16419,0.57063 -0.31832,1.81313 -0.41548,3.34945 -0.085,1.34327 -0.22163,2.85052 -0.30371,3.34945 -0.0839,0.50977 -0.10515,1.27394 -0.0486,1.7445 0.13278,1.1046 0.13562,14.06976 0.003,15.44784 -0.0998,1.03963 -0.0914,1.08472 0.26904,1.44512 0.30331,0.30331 0.45424,0.35595 0.8173,0.28506 0.7973,-0.15569 3.17305,-0.3406 6.376612,-0.49633 1.72706,-0.084 3.42272,-0.21129 3.76813,-0.28299 0.98248,-0.20392 9.12472,-0.30345 12.14176,-0.14841 4.3607,0.22409 9.48485,0.66699 10.46703,0.90471 0.49893,0.12075 1.72357,0.28344 2.72143,0.36153 0.99786,0.0781 2.0341,0.23044 2.30275,0.33858 0.26866,0.10814 1.17929,0.26086 2.02363,0.33938 0.84434,0.0785 1.75497,0.23367 2.02363,0.34478 0.26865,0.11111 1.08508,0.26649 1.81428,0.34529 0.7292,0.0788 1.50831,0.23852 1.73134,0.35492 0.22303,0.1164 0.81965,0.25198 1.32583,0.30129 0.50617,0.0493 1.26572,0.20382 1.68789,0.34338 0.42217,0.13955 1.21422,0.32219 1.76011,0.40587 0.5459,0.0837 1.16966,0.24403 1.38613,0.35633 0.21648,0.11231 0.74327,0.24692 1.17066,0.29912 0.42738,0.0522 1.06198,0.2061 1.41023,0.34201 0.34824,0.1359 1.00767,0.2924 1.46538,0.34777 0.45772,0.0554 1.08342,0.18027 1.39045,0.27756 0.83152,0.2635 1.11902,0.31516 2.72001,0.4888 0.80518,0.0873 1.5274,0.20902 1.60494,0.27044 0.17578,0.13922 2.62934,0.38778 5.0256,0.50912 0.99786,0.0505 1.90849,0.14572 2.02363,0.21153 0.3182,0.18188 7.11226,0.0449 10.18791,-0.20546 z"
       id="path849" />
  </g>
</svg>
