<?xml version="1.0" encoding="UTF-8" standalone="no"?>
<svg
   xmlns:dc="http://purl.org/dc/elements/1.1/"
   xmlns:cc="http://creativecommons.org/ns#"
   xmlns:rdf="http://www.w3.org/1999/02/22-rdf-syntax-ns#"
   xmlns:svg="http://www.w3.org/2000/svg"
   xmlns="http://www.w3.org/2000/svg"
   xmlns:sodipodi="http://sodipodi.sourceforge.net/DTD/sodipodi-0.dtd"
   xmlns:inkscape="http://www.inkscape.org/namespaces/inkscape"
   width="19.68504in"
   height="12.69291in"
   viewBox="0 0 500 322.39993"
   version="1.1"
   id="svg2083"
   inkscape:version="1.0.2 (e86c8708, 2021-01-15)"
   sodipodi:docname="Name_Header.svg">
  <defs
     id="defs2077" />
  <sodipodi:namedview
     id="base"
     pagecolor="#ffffff"
     bordercolor="#666666"
     borderopacity="1.0"
     inkscape:pageopacity="0.0"
     inkscape:pageshadow="2"
     inkscape:zoom="0.35"
     inkscape:cx="1364.4576"
     inkscape:cy="560"
     inkscape:document-units="mm"
     inkscape:current-layer="layer1"
     inkscape:document-rotation="0"
     showgrid="false"
     units="in"
     inkscape:window-width="1920"
     inkscape:window-height="1054"
     inkscape:window-x="1440"
     inkscape:window-y="26"
     inkscape:window-maximized="0" />
  <metadata
     id="metadata2080">
    <rdf:RDF>
      <cc:Work
         rdf:about="">
        <dc:format>image/svg+xml</dc:format>
        <dc:type
           rdf:resource="http://purl.org/dc/dcmitype/StillImage" />
        <dc:title></dc:title>
      </cc:Work>
    </rdf:RDF>
  </metadata>
  <g
     inkscape:label="Layer 1"
     inkscape:groupmode="layer"
     id="layer1">
    <path
       style="fill:#000000;stroke:#25383f;stroke-width:0.131441;stroke-opacity:1"
       d="m 315.05288,207.25183 c 0.0657,-2.8319 0.51262,-5.72387 0.7755,-8.54368 0.29969,-3.2303 0.19322,-6.4819 0.41404,-9.72665 0.22476,-3.29064 0.51919,-6.53093 0.51919,-9.8581 0,-3.80549 0.0907,-8.94511 -2.89696,-11.74152 -3.33073,-3.11674 -7.64594,1.7972 -9.35074,4.38133 -4.19298,6.35834 -7.41723,13.30567 -10.82025,20.10999 l -3.08887,6.17774 c -0.46793,0.93705 -1.22372,1.86686 -1.44585,2.89171 -1.22241,-0.35449 -0.65326,-2.42719 -0.49159,-3.41747 0.5836,-3.56495 0.73081,-7.24583 1.48266,-10.77819 1.28418,-6.02408 1.47477,-12.42895 2.32256,-18.53322 0.7111,-5.12187 1.34728,-10.22836 1.82572,-15.37863 0.13013,-1.38683 0.50342,-2.81258 0.51262,-4.20612 0.0171,-2.72583 0.0289,-6.01028 0.59675,-8.67512 0.21425,-1.0029 0.27865,-2.58979 -0.85963,-3.01987 -1.72451,-0.65195 -2.33177,1.91576 -2.62882,3.01987 -0.51,1.89564 -0.4469,3.97176 -0.6743,5.90973 -0.22739,1.93876 -0.7387,3.9619 -0.77156,5.91998 -0.0591,3.58559 -0.89774,7.21981 -1.29732,10.77819 -1.12251,9.99663 -2.64855,19.95975 -3.57915,29.96861 -0.32729,3.51369 -0.90695,7.1182 -0.90695,10.64674 0,1.34163 -0.19716,3.0175 0.57835,4.20047 0.85174,1.2968 2.63277,1.05719 3.74213,0.25145 1.76657,-1.28366 2.80496,-4.25607 3.73162,-6.16065 4.04182,-8.31353 8.06261,-16.70448 12.67225,-24.71083 1.08308,-1.88093 2.28577,-3.9602 3.64224,-5.65198 0.40616,-0.50578 1.29076,-1.40011 2.03603,-1.12119 1.02918,0.38486 1.24343,2.31455 1.41299,3.22412 0.62041,3.31995 0.31283,6.87372 0.31283,10.25242 0,6.19877 -0.60857,12.52714 -1.29732,18.66466 -0.33781,3.00791 -0.22214,6.06102 -0.55994,9.06945 -0.35358,3.15065 -0.91746,6.29078 -1.17246,9.46377 -0.0867,1.08965 -0.45216,2.16616 -0.21951,3.28604 0.10121,0.49027 0.48634,0.83596 0.62041,1.31441 h 2.10306 c 0.24711,-0.88329 1.04233,-1.6417 1.44322,-2.49738 0.83597,-1.77972 1.52735,-3.68956 2.24634,-5.52054 4.42168,-11.25177 9.45062,-21.90035 15.73746,-32.24057 15.45093,-25.41733 35.0646,-49.22161 58.64911,-67.4512 12.15964,-9.39884 25.6902,-17.688839 40.61536,-21.818339 17.43175,-4.82336 35.71392,-2.56321 50.6404,8.109799 3.86831,2.76631 7.10045,5.99201 10.34837,9.43026 0.87014,0.92114 2.46189,3.59715 3.84203,1.83952 0.81231,-1.03432 -0.54548,-2.37988 -1.18034,-3.15394 -2.11358,-2.57953 -4.48215,-4.77999 -6.86781,-7.09585 -9.27056,-8.998339 -23.46622,-15.249169 -36.40924,-15.249169 v -0.39432 c -21.13576,0 -40.99786,8.90344 -58.09706,20.990119 -22.34765,15.79556 -41.18187,36.42843 -56.64989,58.92618 -5.27868,7.67893 -10.28265,15.72472 -14.45985,24.05376 -1.32362,2.63934 -2.70375,5.29984 -3.85518,8.01791 -0.88723,2.09281 -1.61541,4.41433 -3.24265,6.0463 m -213.98645,-22.6079 c -0.0499,-1.69927 1.2132,-3.6258 1.67312,-5.25765 1.56743,-5.56141 4.01632,-10.94262 5.32021,-16.5616 0.45952,-1.98016 2.2165,-5.5091 0.83071,-7.36058 -1.51157,-2.01999 -4.0292,-1.02984 -5.56535,0.43691 -3.691663,3.5246 -6.660922,8.14042 -9.764646,12.18132 -0.998034,1.29943 -1.921803,2.65801 -2.937713,3.94311 -0.126841,0.16049 -0.911283,1.1413 -1.161152,0.75447 -0.233835,-0.36225 0.982523,-2.41839 1.172982,-2.8574 1.301269,-2.99936 2.769862,-5.91249 4.016977,-8.93788 0.771298,-1.87093 1.54575,-3.73201 2.186789,-5.6521 2.798649,-8.38254 7.559973,-21.77588 -2.212551,-27.53446 -1.704268,-1.00421 -3.635929,-1.30271 -5.520535,-1.70531 -2.104112,-0.44953 -5.368194,-0.59596 -7.492154,-0.14328 -4.216637,0.8988 -8.458379,1.40393 -12.618365,2.74726 -17.461977,5.6387 -33.930915,15.52887 -46.659165,28.73885 -3.44534,3.57559 -5.743328,8.0793 -7.27462,12.7498 -0.439276,1.33952 -1.186783,4.26882 0.191379,5.28854 0.723584,0.53549 2.041678,0.44795 2.307189,-0.55862 0.317825,-1.20519 0.332809,-2.47215 0.701239,-3.67839 1.59228,-5.21335 4.82968,-10.60902 8.672761,-14.45854 7.574436,-7.58705 16.486814,-13.63033 25.893936,-18.71553 6.758187,-3.65341 13.808698,-7.05064 21.294017,-8.94458 6.550115,-1.65721 16.598934,-3.52578 20.752611,3.60636 3.274334,5.62227 0.574661,13.69631 -1.364887,19.32186 -5.270928,15.28755 -13.161218,29.98202 -21.52956,43.76995 -2.847281,4.6914 -5.174055,9.76044 -8.194576,14.3388 -0.746324,1.13132 -2.525119,3.99989 -0.442169,4.77276 1.816913,0.6743 3.065211,-0.83465 3.943108,-2.15563 l 6.572065,-9.8581 c 6.761735,-10.17408 13.874813,-20.23105 21.249853,-29.96861 1.897618,-2.5054 3.635403,-5.13042 5.550367,-7.6236 0.63592,-0.82781 1.46899,-2.38184 2.43548,-2.83558 0.45084,-0.21175 0.77169,0.17022 0.65195,0.60305 -0.56073,2.02919 -1.48647,4.00055 -2.07493,6.04433 -1.714129,5.95324 -4.335857,11.67751 -5.670907,17.74457 -0.203208,0.92391 -0.678368,2.21689 -0.557311,3.1546 0.228182,1.76683 2.13579,2.35595 3.652228,1.87119 2.41405,-0.77156 4.22557,-3.91905 5.71901,-5.81443 3.70967,-4.7081 7.69984,-9.17658 11.65543,-13.6699 12.59024,-14.3016 25.7738,-28.34334 41.64271,-39.10509 5.29708,-3.59256 10.6428,-7.1788 16.43016,-9.95169 1.42088,-0.68099 4.93431,-2.65485 6.19352,-0.87855 1.16982,1.64919 0.27077,4.1471 -0.0868,5.9025 -1.11068,5.45508 -3.83546,10.7013 -6.30393,15.64152 -9.99085,19.99366 -20.01325,39.96301 -31.70496,59.01713 -3.06784,5.00042 -6.27895,9.92513 -9.25346,14.98431 -0.79654,1.35516 -1.67194,2.6538 -2.35412,4.07468 -0.23922,0.49553 -0.7111,1.13039 -0.60594,1.70874 0.10647,0.58622 0.74264,0.9306 1.00289,1.44585 h 0.65721 v -0.52577 c 0.82282,-0.23133 1.04365,-0.89774 1.48923,-1.55495 0.80442,-1.18822 1.61279,-2.37645 2.40932,-3.57126 3.28735,-4.93167 6.69431,-9.87965 9.70563,-14.9843 4.31784,-7.32154 8.97349,-14.44684 13.21642,-21.81925 7.01239,-12.18146 13.29397,-24.75829 19.57818,-37.32933 1.62199,-3.24463 3.00212,-6.61846 4.33756,-9.98954 1.06599,-2.6881 2.18982,-5.39671 2.51448,-8.2808 0.31151,-2.76092 0.602,-5.4397 -1.72583,-7.47467 -2.03471,-1.77827 -5.56785,-1.27761 -7.88648,-0.49869 -6.10413,2.05088 -11.56026,5.77225 -16.95592,9.18446 -9.7122,6.14107 -19.04585,13.5838 -27.05325,21.81347 -10.70879,11.00729 -20.37827,23.0084 -30.64949,34.41527 m 166.14186,-30.10005 c -1.69691,0.96097 -2.08334,2.58256 -2.78261,4.33756 -0.80574,2.02407 -1.64959,4.03683 -2.4895,6.0463 -1.8875,4.51461 -3.95507,8.9359 -5.81233,13.46274 -0.64801,1.58111 -1.36042,3.17773 -1.8783,4.8076 -0.27471,0.86725 -0.42061,2.13671 -0.91746,2.88921 -0.33255,0.50329 -0.93192,0.78746 -1.36699,1.19257 -1.19349,1.11265 -2.32388,2.2366 -3.68036,3.16208 -2.15038,1.46807 -4.39145,2.13093 -6.96639,2.08781 -1.11988,-0.0187 -2.79181,-0.54482 -3.18482,-1.70821 -0.24185,-0.71635 -0.12487,-1.97582 0.69401,-2.28589 0.70716,-0.26749 2.20427,0.18296 3.01658,0.18296 2.26473,0 4.122,-0.78115 5.63489,-2.49738 0.7847,-0.89038 1.39459,-2.15235 0.82151,-3.28551 -0.95032,-1.87843 -3.98399,-1.46964 -5.66775,-1.079 -2.46453,0.5719 -4.83573,1.93192 -6.37885,3.97018 -0.66246,0.87448 -0.87408,1.97097 -1.459,2.86753 -0.86751,1.32913 -2.79313,2.61726 -4.38619,2.76697 -2.68404,0.2521 -0.77551,-3.44521 -0.78997,-4.71441 -0.009,-0.93152 -0.67692,-1.68442 -1.68507,-1.54075 -2.59597,0.36961 -4.68983,3.64618 -6.72586,5.0877 -0.45478,0.32242 -2.09911,1.69493 -2.65248,0.97411 -0.23528,-0.306 0.0946,-0.82296 0.23396,-1.10358 0.48634,-0.97727 1.11463,-1.7671 1.76132,-2.6308 1.22635,-1.63631 3.95112,-4.40302 6.17774,-4.51212 1.18691,-0.0582 1.6601,1.5844 3.00606,0.94572 1.19349,-0.56625 0.57834,-2.41681 -0.18796,-3.08427 -1.55758,-1.35726 -4.27447,-0.37408 -5.84125,0.40918 -1.92693,0.9632 -3.79077,2.17654 -5.38909,3.62831 -1.89802,1.72411 -3.59755,4.03905 -6.44063,4.30641 -1.29469,0.12171 -1.30258,-1.14775 -1.05153,-2.08558 0.5744,-2.14604 1.9059,-6.39449 -0.78865,-7.69274 -2.28576,-1.10095 -4.55181,0.61173 -6.3473,1.84018 -0.80047,0.54811 -1.6969,1.43008 -2.72215,1.25211 2.96926,-6.64015 6.59967,-12.96997 9.35074,-19.72132 0.63749,-1.56651 1.19086,-3.14815 1.79549,-4.72676 0.19059,-0.49763 0.56914,-1.44611 -0.0158,-1.83649 -0.61251,-0.40905 -1.9243,-0.14367 -2.35542,0.40812 -1.38802,1.78208 -2.47242,4.71296 -3.29261,6.81747 -1.85464,4.75725 -4.37174,9.27239 -6.46165,13.93264 -0.6927,1.54299 -1.52341,3.03853 -2.17273,4.60058 -0.65063,1.56349 -1.31835,3.66037 -2.45401,4.94587 -1.01341,1.14867 -3.00606,1.99055 -4.38356,2.60556 -2.30417,1.02853 -5.32338,2.18442 -7.88648,1.89538 -0.4469,-0.0503 -0.89906,-0.22305 -1.31442,-0.38867 -2.97977,-1.18875 -1.58124,-4.12357 -0.0289,-5.95889 1.0489,-1.23936 2.55653,-2.89315 4.23504,-3.19599 1.19217,-0.21504 2.89039,0.94243 3.76973,-0.0628 0.91615,-1.04772 -0.83991,-1.85162 -1.66667,-1.92982 -3.38199,-0.32006 -6.71534,0.70557 -9.05631,3.27249 -1.08176,1.18652 -1.33676,2.70243 -2.23187,3.91892 -1.71663,2.33571 -6.26055,4.93602 -9.21667,4.36175 0.28129,-2.30863 1.62856,-4.23215 2.55654,-6.30918 0.30625,-0.68626 0.77944,-1.78037 -0.19322,-2.15524 -1.34859,-0.51972 -2.23582,0.66167 -2.86542,1.62947 -1.18823,1.82428 -2.71689,4.474 -2.7813,6.70351 -0.0276,0.9398 -0.046,1.91405 0.79259,2.5284 2.31994,1.69744 6.55498,0.12763 8.62649,-1.33873 0.7295,-0.51696 1.82441,-1.92785 2.66695,-2.09491 0.59148,-0.11711 1.25658,1.39078 1.71268,1.73148 1.44585,1.079 3.13224,1.27445 4.86333,1.51223 0.69269,0.095 1.29601,-0.1689 1.97162,-0.22319 1.96504,-0.15799 3.62646,-0.34595 5.52053,-0.97529 0.95821,-0.31861 2.02025,-1.14946 3.02315,-1.13999 -0.31283,0.60686 -1.08571,1.67219 -0.99238,2.36528 0.17481,1.30259 2.54996,0.86147 3.17693,0.22884 1.17115,-1.17863 1.97031,-2.86042 3.00212,-4.17142 1.53787,-1.95597 3.36359,-3.58072 5.19719,-5.24398 0.69007,-0.62579 2.6446,-2.63737 3.67773,-2.3131 0.77682,0.24408 0.4285,1.06678 0.39827,1.64223 -0.0867,1.65629 -0.85174,3.22464 -1.03576,4.86332 -0.0473,0.42009 -0.0473,0.89893 0.0329,1.31442 0.71504,3.71203 5.39041,1.31165 7.57365,0.52576 -0.025,0.8612 -0.37724,1.62724 0.13275,2.44113 1.47083,2.34504 5.85703,1.13841 7.71167,0.0405 1.2316,-0.73002 2.17272,-2.01328 3.45953,-2.61305 0.1275,0.68691 0.17876,1.34031 0.50999,1.97109 1.05942,2.02183 4.62805,1.48016 6.32496,0.67587 0.77024,-0.36514 1.5142,-0.95636 2.36594,-1.06967 0.46793,1.71295 2.44481,2.18101 3.94324,2.55483 5.23399,1.30613 9.35336,-1.73227 13.53845,-4.26356 0,0.74816 0.0697,1.3825 0.28129,2.10306 1.42745,4.88041 7.5697,2.26486 10.36546,0.20492 0.7295,-0.53799 1.38802,-1.15156 2.10306,-1.70414 1.06599,-0.82414 2.02814,-1.75671 2.8365,-2.83834 0.25369,-0.34017 0.81494,-0.82467 0.72819,-1.30009 -0.26814,-1.46491 -2.44218,0.58807 -2.77604,0.89866 -2.00054,1.86345 -4.25476,3.35596 -6.75871,4.46296 -1.16589,0.51551 -2.63014,0.70952 -3.12962,-0.7755 -0.74264,-2.20677 1.04496,-5.55392 1.73897,-7.6236 2.24896,-6.70547 5.01974,-13.37125 7.85887,-19.84763 0.79654,-1.81731 1.42088,-3.72597 2.26474,-5.52053 0.31809,-0.67417 1.03838,-1.72675 0.87277,-2.49739 -0.17219,-0.80442 -1.01079,-1.0301 -1.66405,-1.31441 m 75.44731,36.935 c 0.10778,-0.85568 0.61514,-1.50106 1.02656,-2.2345 1.3407,-2.38842 3.8578,-4.9836 6.46559,-5.99399 0.3917,-0.15155 0.89775,-0.32834 1.31442,-0.19059 0.91614,0.30324 2.74318,2.21163 3.24265,0.007 0.78997,-3.49411 -4.423,-2.867 -6.13436,-2.0359 -3.81969,1.85569 -7.34494,4.61911 -9.26004,8.49887 -0.30626,0.61895 -0.56257,1.39971 -0.67955,2.08071 -0.62435,3.63317 5.29971,2.63579 7.04788,1.90616 1.66799,-0.69611 2.82336,-2.02327 4.33756,-2.95769 1.11594,5.4372 7.35414,2.75186 10.25242,0.39432 0.21294,0.88106 0.4009,1.82717 0.84911,2.6287 2.23976,4.01224 7.83916,-0.0109 10.45485,-1.31428 -0.30626,1.46793 -1.22109,2.80758 -1.74554,4.20612 -0.24449,0.65208 -0.49554,1.4101 0.1827,1.89236 0.87145,0.61974 1.71268,-0.25381 2.11489,-0.97227 0.72818,-1.29838 1.4774,-2.6145 2.14249,-3.94324 0.2642,-0.52866 0.52182,-1.40051 1.12383,-1.62882 0.56782,-0.21451 1.30126,0.18099 1.8336,0.35896 1.18429,0.39591 2.42378,0.8273 3.68036,0.87304 4.04708,0.14734 8.21639,-1.12632 11.82972,-2.88921 0.24316,1.01919 0.26025,2.02774 0.99895,2.8641 0.82545,0.93494 2.30285,1.29628 3.47005,1.50698 3.265,0.58885 6.87832,0.0691 9.72666,-1.74226 -0.0907,1.464 1.66404,2.08164 2.73266,1.03208 0.88723,-0.87172 1.50106,-2.12698 2.22399,-3.13514 2.04785,-2.85595 4.83047,-6.50739 8.45036,-7.38713 2.34097,-0.56888 -0.15116,3.42221 2.10306,2.93101 1.79943,-0.39196 2.1885,-2.54444 1.94402,-4.08743 -0.37067,-2.33032 -4.53473,-0.97201 -5.88726,-0.5259 -0.42061,0.13854 -1.10148,0.52012 -1.54969,0.41233 -1.14223,-0.27484 -0.90826,-2.65498 -2.7813,-1.68507 -1.48923,0.77169 -2.30154,3.56863 -3.0731,4.9531 -2.02157,3.62055 -5.89251,7.22756 -10.34049,7.22927 -1.20268,5.3e-4 -2.56441,0.0908 -3.55943,-0.71964 -0.76498,-0.62238 -1.60489,-2.73595 -0.24448,-3.27565 0.66247,-0.26275 1.76263,0.18349 2.4895,0.18349 2.01368,1.3e-4 3.73951,-0.30507 5.3891,-1.54575 1.50894,-1.13526 2.79575,-3.50659 1.0489,-4.99161 -0.74133,-0.63066 -1.58124,-0.56047 -2.49476,-0.56047 -2.23844,0 -4.09834,0.56113 -6.0463,1.67483 -1.68639,0.96399 -2.31074,2.54102 -3.72505,3.65604 -0.81887,0.6459 -1.91772,1.03957 -2.84701,1.50408 -2.98504,1.49225 -7.13858,3.1032 -10.51531,2.28734 -2.12935,-0.51446 -2.70637,-2.00343 -0.78865,-3.40485 2.14907,-1.5706 4.96191,-2.32467 7.22928,-3.74437 0.66246,-0.4147 2.95742,-1.08321 2.13723,-2.20782 -0.47187,-0.64709 -1.21583,-0.37829 -1.87435,-0.27642 -1.62725,0.25171 -3.5292,1.65524 -4.99477,2.40038 -0.5284,0.2688 -1.59307,0.90103 -2.18061,0.47292 -0.4469,-0.32452 -0.0907,-1.17035 0.0907,-1.55113 l 2.01763,-4.22847 c 2.47109,-5.20021 5.18667,-10.45024 7.05971,-15.9044 0.37461,-1.08964 2.42246,-4.99266 0.50473,-5.47873 -1.14617,-0.29049 -1.77183,0.66351 -2.23187,1.53497 -1.11068,2.1053 -1.86515,4.41866 -2.89039,6.57259 -2.53288,5.31825 -4.91197,10.70248 -7.42381,16.03584 -1.10411,2.34478 -2.04786,5.50173 -3.88409,7.36058 -1.57467,1.5932 -3.70796,2.91629 -5.78868,3.74397 -0.71766,0.28523 -1.59043,0.71491 -2.36068,0.32716 -2.35674,-1.18639 -0.15116,-5.72414 0.43901,-7.48847 2.46584,-7.37688 5.78079,-14.43975 8.56209,-21.68795 0.79259,-2.06323 2.10043,-4.17247 2.6354,-6.30905 0.24711,-0.99001 10e-4,-2.01933 -1.1212,-2.20453 -0.90168,-0.14866 -1.56678,0.56165 -1.95584,1.28444 -1.00159,1.86187 -1.66405,4.07823 -2.46058,6.0463 -2.29628,5.6709 -4.81733,11.24848 -7.19379,16.88219 -0.62566,1.48529 -1.23423,3.01198 -1.73108,4.54274 -0.32597,1.00566 -0.48765,2.25685 -1.06073,3.15459 -1.11068,1.74042 -3.10333,3.74687 -5.05129,4.52842 -0.73344,0.29416 -1.98739,0.65563 -2.49344,-0.2157 -0.7111,-1.22372 0.61252,-2.94047 0.64406,-4.18128 0.021,-0.85568 -0.83597,-1.65497 -1.70085,-1.54075 -3.90775,0.51591 -5.65723,6.25871 -9.72534,6.27264 M 174.67356,174.52295 c -2.25421,-0.46293 -3.11778,1.26131 -3.97872,3.15459 -0.23266,0.50987 -1.00422,1.7345 -0.39301,2.23083 0.68349,0.55442 2.01105,-0.0601 2.53156,-0.53589 1.25395,-1.14893 2.36725,-3.16156 1.84017,-4.84953 m 69.40101,9.14884 c 0.94375,-0.0605 0.86883,1.186 0.57703,1.76013 -0.40615,0.79825 -1.42088,1.26092 -2.28577,1.30942 -0.30231,0.017 -0.61908,0.0206 -0.92008,-0.008 -1.03182,-0.0981 -1.56153,-0.75881 -0.6743,-1.51775 0.85831,-0.73423 2.14118,-1.46938 3.30312,-1.54378 m 158.38677,0.0428 c 1.13828,0.0497 0.68875,1.27893 0.25105,1.83716 -0.73081,0.92824 -1.86383,1.29588 -3.01132,1.18139 -0.89643,-0.0894 -1.60095,-0.78339 -0.78076,-1.52892 0.81362,-0.73989 2.40932,-1.53905 3.54103,-1.48963 z"
       id="path2662" />
  </g>
</svg>
